solid CATIA STL
  facet normal -1.379271e-006 -9.863940e-001  1.643984e-001
    outer loop
      vertex -5.838813e+000 -8.708900e+000 -7.253403e+000
      vertex  5.276591e+000 -1.292557e+001 -3.255341e+001
      vertex -5.878442e+000 -8.605510e+000 -6.633056e+000
    endloop
  endfacet
  facet normal -1.114236e-007 -9.863940e-001  1.643990e-001
    outer loop
      vertex -5.838813e+000 -8.708900e+000 -7.253403e+000
      vertex -5.768536e+000 -9.235984e+000 -1.041590e+001
      vertex  5.276591e+000 -1.292557e+001 -3.255341e+001
    endloop
  endfacet
  facet normal -1.499834e-007 -9.863939e-001  1.643989e-001
    outer loop
      vertex -6.578922e+000 -8.196429e+000 -4.178575e+000
      vertex  5.346869e+000 -1.239848e+001 -2.939091e+001
      vertex  5.417147e+000 -1.187140e+001 -2.622840e+001
    endloop
  endfacet
  facet normal -2.356929e-006 -9.863941e-001  1.643979e-001
    outer loop
      vertex -6.578922e+000 -8.196429e+000 -4.178575e+000
      vertex -6.305800e+000 -8.302898e+000 -4.817390e+000
      vertex  5.346869e+000 -1.239848e+001 -2.939091e+001
    endloop
  endfacet
  facet normal -1.634213e-007 -9.863940e-001  1.643989e-001
    outer loop
      vertex  5.276591e+000 -1.292557e+001 -3.255341e+001
      vertex -5.768536e+000 -9.235984e+000 -1.041590e+001
      vertex -5.698257e+000 -9.763067e+000 -1.357841e+001
    endloop
  endfacet
  facet normal -5.942591e-008 -9.863939e-001  1.643990e-001
    outer loop
      vertex  5.276591e+000 -1.292557e+001 -3.255341e+001
      vertex -5.698257e+000 -9.763067e+000 -1.357841e+001
      vertex -5.627980e+000 -1.029015e+001 -1.674091e+001
    endloop
  endfacet
  facet normal -5.942590e-008 -9.863940e-001  1.643990e-001
    outer loop
      vertex  5.276591e+000 -1.292557e+001 -3.255341e+001
      vertex -5.627980e+000 -1.029015e+001 -1.674091e+001
      vertex -5.557702e+000 -1.081723e+001 -1.990341e+001
    endloop
  endfacet
  facet normal  1.782776e-007 -9.863940e-001  1.643992e-001
    outer loop
      vertex  5.276591e+000 -1.292557e+001 -3.255341e+001
      vertex -5.557702e+000 -1.081723e+001 -1.990341e+001
      vertex -5.487424e+000 -1.134432e+001 -2.306591e+001
    endloop
  endfacet
  facet normal  0.000000e+000 -9.863940e-001  1.643990e-001
    outer loop
      vertex  5.276591e+000 -1.292557e+001 -3.255341e+001
      vertex -5.487424e+000 -1.134432e+001 -2.306591e+001
      vertex -5.417147e+000 -1.187140e+001 -2.622841e+001
    endloop
  endfacet
  facet normal  0.000000e+000 -9.863939e-001  1.643990e-001
    outer loop
      vertex  5.276591e+000 -1.292557e+001 -3.255341e+001
      vertex -5.417147e+000 -1.187140e+001 -2.622841e+001
      vertex -5.346869e+000 -1.239849e+001 -2.939091e+001
    endloop
  endfacet
  facet normal  0.000000e+000 -9.863939e-001  1.643990e-001
    outer loop
      vertex  5.276591e+000 -1.292557e+001 -3.255341e+001
      vertex -5.346869e+000 -1.239849e+001 -2.939091e+001
      vertex -5.276591e+000 -1.292557e+001 -3.255341e+001
    endloop
  endfacet
  facet normal  4.251714e-007 -9.863938e-001  1.643992e-001
    outer loop
      vertex  5.276591e+000 -1.292557e+001 -3.255341e+001
      vertex  5.346869e+000 -1.239848e+001 -2.939091e+001
      vertex -6.305800e+000 -8.302898e+000 -4.817390e+000
    endloop
  endfacet
  facet normal -2.567256e-006 -9.863941e-001  1.643980e-001
    outer loop
      vertex  5.276591e+000 -1.292557e+001 -3.255341e+001
      vertex -6.305800e+000 -8.302898e+000 -4.817390e+000
      vertex -6.094040e+000 -8.412949e+000 -5.477692e+000
    endloop
  endfacet
  facet normal -1.220628e-006 -9.863940e-001  1.643985e-001
    outer loop
      vertex  5.276591e+000 -1.292557e+001 -3.255341e+001
      vertex -6.094040e+000 -8.412949e+000 -5.477692e+000
      vertex -5.944990e+000 -8.525622e+000 -6.153736e+000
    endloop
  endfacet
  facet normal  4.488121e-006 -9.863936e-001  1.644009e-001
    outer loop
      vertex  5.276591e+000 -1.292557e+001 -3.255341e+001
      vertex -5.944990e+000 -8.525622e+000 -6.153736e+000
      vertex -5.878442e+000 -8.605510e+000 -6.633056e+000
    endloop
  endfacet
  facet normal  1.694046e-003 -9.862426e-001  1.652954e-001
    outer loop
      vertex -6.911504e+000 -8.094492e+000 -3.566952e+000
      vertex -6.578922e+000 -8.196429e+000 -4.178575e+000
      vertex  5.417147e+000 -1.187140e+001 -2.622840e+001
    endloop
  endfacet
  facet normal  1.750989e-007 -9.863939e-001  1.643991e-001
    outer loop
      vertex -6.911504e+000 -8.094492e+000 -3.566952e+000
      vertex  5.417147e+000 -1.187140e+001 -2.622840e+001
      vertex  5.487424e+000 -1.134432e+001 -2.306590e+001
    endloop
  endfacet
  facet normal -1.262274e-007 -9.863939e-001  1.643989e-001
    outer loop
      vertex -6.911504e+000 -8.094492e+000 -3.566952e+000
      vertex  5.487424e+000 -1.134432e+001 -2.306590e+001
      vertex  5.557702e+000 -1.081723e+001 -1.990340e+001
    endloop
  endfacet
  facet normal -4.993252e-006 -9.863959e-001  1.643871e-001
    outer loop
      vertex -1.056139e+001 -7.584518e+000 -5.071093e-001
      vertex -9.928164e+000 -7.631284e+000 -7.877029e-001
      vertex  5.838814e+000 -8.708898e+000 -7.253386e+000
    endloop
  endfacet
  facet normal -3.840588e-008 -9.863940e-001  1.643988e-001
    outer loop
      vertex -1.056139e+001 -7.584518e+000 -5.071093e-001
      vertex  5.838814e+000 -8.708898e+000 -7.253386e+000
      vertex  5.871509e+000 -8.616967e+000 -6.701803e+000
    endloop
  endfacet
  facet normal -2.429934e-007 -9.863940e-001  1.643983e-001
    outer loop
      vertex -1.056139e+001 -7.584518e+000 -5.071093e-001
      vertex  5.871509e+000 -8.616967e+000 -6.701803e+000
      vertex  5.945014e+000 -8.525621e+000 -6.153726e+000
    endloop
  endfacet
  facet normal  3.600163e-007 -9.863937e-001  1.644000e-001
    outer loop
      vertex -1.056139e+001 -7.584518e+000 -5.071093e-001
      vertex  5.945014e+000 -8.525621e+000 -6.153726e+000
      vertex  6.094067e+000 -8.412946e+000 -5.477677e+000
    endloop
  endfacet
  facet normal  1.884853e-006 -9.863930e-001  1.644050e-001
    outer loop
      vertex -1.121848e+001 -7.547739e+000 -2.864308e-001
      vertex -1.056139e+001 -7.584518e+000 -5.071093e-001
      vertex  6.094067e+000 -8.412946e+000 -5.477677e+000
    endloop
  endfacet
  facet normal -2.350216e-007 -9.863941e-001  1.643981e-001
    outer loop
      vertex -1.121848e+001 -7.547739e+000 -2.864308e-001
      vertex  6.094067e+000 -8.412946e+000 -5.477677e+000
      vertex  6.305829e+000 -8.302896e+000 -4.817372e+000
    endloop
  endfacet
  facet normal  2.490710e-007 -9.863938e-001  1.644000e-001
    outer loop
      vertex -1.121848e+001 -7.547739e+000 -2.864308e-001
      vertex  6.305829e+000 -8.302896e+000 -4.817372e+000
      vertex  6.578953e+000 -8.196425e+000 -4.178555e+000
    endloop
  endfacet
  facet normal  1.978775e-007 -9.863938e-001  1.643997e-001
    outer loop
      vertex -1.189347e+001 -7.521268e+000 -1.276068e-001
      vertex -1.121848e+001 -7.547739e+000 -2.864308e-001
      vertex  6.578953e+000 -8.196425e+000 -4.178555e+000
    endloop
  endfacet
  facet normal -1.115789e-007 -9.863940e-001  1.643984e-001
    outer loop
      vertex -1.189347e+001 -7.521268e+000 -1.276068e-001
      vertex  6.578953e+000 -8.196425e+000 -4.178555e+000
      vertex  6.911536e+000 -8.094489e+000 -3.566935e+000
    endloop
  endfacet
  facet normal -7.162272e-008 -9.863940e-001  1.643986e-001
    outer loop
      vertex -1.189347e+001 -7.521268e+000 -1.276068e-001
      vertex  6.911536e+000 -8.094489e+000 -3.566935e+000
      vertex  7.301106e+000 -7.998016e+000 -2.988094e+000
    endloop
  endfacet
  facet normal  1.226433e-008 -9.863939e-001  1.643991e-001
    outer loop
      vertex -1.189347e+001 -7.521268e+000 -1.276068e-001
      vertex  7.301106e+000 -7.998016e+000 -2.988094e+000
      vertex  7.737446e+000 -7.909228e+000 -2.455369e+000
    endloop
  endfacet
  facet normal -5.465022e-007 -9.863946e-001  1.643945e-001
    outer loop
      vertex -1.258021e+001 -7.505321e+000 -3.192236e-002
      vertex -1.189347e+001 -7.521268e+000 -1.276068e-001
      vertex  7.737446e+000 -7.909228e+000 -2.455369e+000
    endloop
  endfacet
  facet normal  6.390631e-008 -9.863938e-001  1.643995e-001
    outer loop
      vertex -1.258021e+001 -7.505321e+000 -3.192236e-002
      vertex  7.737446e+000 -7.909228e+000 -2.455369e+000
      vertex  8.222616e+000 -7.827427e+000 -1.964562e+000
    endloop
  endfacet
  facet normal -3.523867e-008 -9.863940e-001  1.643985e-001
    outer loop
      vertex -1.258021e+001 -7.505321e+000 -3.192236e-002
      vertex  8.222616e+000 -7.827427e+000 -1.964562e+000
      vertex  8.752580e+000 -7.753380e+000 -1.520281e+000
    endloop
  endfacet
  facet normal  3.953397e-008 -9.863939e-001  1.643995e-001
    outer loop
      vertex -1.258021e+001 -7.505321e+000 -3.192236e-002
      vertex  8.752580e+000 -7.753380e+000 -1.520281e+000
      vertex  9.322782e+000 -7.687790e+000 -1.126743e+000
    endloop
  endfacet
  facet normal  2.216384e-009 -9.863939e-001  1.643988e-001
    outer loop
      vertex -1.258021e+001 -7.505321e+000 -3.192236e-002
      vertex  9.322782e+000 -7.687790e+000 -1.126743e+000
      vertex  9.928201e+000 -7.631282e+000 -7.876943e-001
    endloop
  endfacet
  facet normal  2.593843e-008 -9.863938e-001  1.643995e-001
    outer loop
      vertex -1.258021e+001 -7.505321e+000 -3.192236e-002
      vertex  9.928201e+000 -7.631282e+000 -7.876943e-001
      vertex  1.056142e+001 -7.584517e+000 -5.071033e-001
    endloop
  endfacet
  facet normal  2.054092e-007 -9.863924e-001  1.644080e-001
    outer loop
      vertex -1.327250e+001 -7.500000e+000 -2.560729e-013
      vertex -1.258021e+001 -7.505321e+000 -3.192236e-002
      vertex  1.056142e+001 -7.584517e+000 -5.071033e-001
    endloop
  endfacet
  facet normal  7.675187e-009 -9.863940e-001  1.643990e-001
    outer loop
      vertex -1.327250e+001 -7.500000e+000 -2.560729e-013
      vertex  1.056142e+001 -7.584517e+000 -5.071033e-001
      vertex  1.121852e+001 -7.547738e+000 -2.864268e-001
    endloop
  endfacet
  facet normal -6.793437e-009 -9.863941e-001  1.643978e-001
    outer loop
      vertex -1.327250e+001 -7.500000e+000 -2.560729e-013
      vertex  1.121852e+001 -7.547738e+000 -2.864268e-001
      vertex  1.189350e+001 -7.521267e+000 -1.276044e-001
    endloop
  endfacet
  facet normal  7.171171e-009 -9.863936e-001  1.644004e-001
    outer loop
      vertex -1.327250e+001 -7.500000e+000 -2.560729e-013
      vertex  1.189350e+001 -7.521267e+000 -1.276044e-001
      vertex  1.258025e+001 -7.505320e+000 -3.192127e-002
    endloop
  endfacet
  facet normal  0.000000e+000 -9.863946e-001  1.643948e-001
    outer loop
      vertex -1.327250e+001 -7.500000e+000 -2.560729e-013
      vertex  1.258025e+001 -7.505320e+000 -3.192127e-002
      vertex  1.327253e+001 -7.500000e+000  5.440093e-015
    endloop
  endfacet
  facet normal  3.000907e-006 -9.863936e-001  1.644012e-001
    outer loop
      vertex -6.911504e+000 -8.094492e+000 -3.566952e+000
      vertex  5.557702e+000 -1.081723e+001 -1.990340e+001
      vertex -7.301075e+000 -7.998018e+000 -2.988108e+000
    endloop
  endfacet
  facet normal -1.385720e-007 -9.863939e-001  1.643989e-001
    outer loop
      vertex -7.301075e+000 -7.998018e+000 -2.988108e+000
      vertex  5.557702e+000 -1.081723e+001 -1.990340e+001
      vertex  5.627980e+000 -1.029015e+001 -1.674090e+001
    endloop
  endfacet
  facet normal -2.825647e-007 -9.863940e-001  1.643988e-001
    outer loop
      vertex -7.301075e+000 -7.998018e+000 -2.988108e+000
      vertex  5.627980e+000 -1.029015e+001 -1.674090e+001
      vertex -7.737412e+000 -7.909231e+000 -2.455385e+000
    endloop
  endfacet
  facet normal  6.914324e-008 -9.863939e-001  1.643991e-001
    outer loop
      vertex -7.737412e+000 -7.909231e+000 -2.455385e+000
      vertex  5.627980e+000 -1.029015e+001 -1.674090e+001
      vertex  5.698258e+000 -9.763065e+000 -1.357839e+001
    endloop
  endfacet
  facet normal -2.976038e-006 -9.863945e-001  1.643955e-001
    outer loop
      vertex -7.737412e+000 -7.909231e+000 -2.455385e+000
      vertex  5.698258e+000 -9.763065e+000 -1.357839e+001
      vertex -8.222580e+000 -7.827430e+000 -1.964578e+000
    endloop
  endfacet
  facet normal  2.329760e-006 -9.863935e-001  1.644017e-001
    outer loop
      vertex -8.222580e+000 -7.827430e+000 -1.964578e+000
      vertex  5.698258e+000 -9.763065e+000 -1.357839e+001
      vertex -8.752542e+000 -7.753383e+000 -1.520295e+000
    endloop
  endfacet
  facet normal -1.111901e-007 -9.863939e-001  1.643988e-001
    outer loop
      vertex -8.752542e+000 -7.753383e+000 -1.520295e+000
      vertex  5.698258e+000 -9.763065e+000 -1.357839e+001
      vertex  5.768536e+000 -9.235982e+000 -1.041589e+001
    endloop
  endfacet
  facet normal  4.150336e-006 -9.863929e-001  1.644056e-001
    outer loop
      vertex -8.752542e+000 -7.753383e+000 -1.520295e+000
      vertex  5.768536e+000 -9.235982e+000 -1.041589e+001
      vertex -9.322744e+000 -7.687792e+000 -1.126755e+000
    endloop
  endfacet
  facet normal  7.941889e-008 -9.863939e-001  1.643992e-001
    outer loop
      vertex -9.322744e+000 -7.687792e+000 -1.126755e+000
      vertex  5.768536e+000 -9.235982e+000 -1.041589e+001
      vertex  5.838814e+000 -8.708898e+000 -7.253386e+000
    endloop
  endfacet
  facet normal  0.000000e+000 -9.863939e-001  1.643990e-001
    outer loop
      vertex -9.322744e+000 -7.687792e+000 -1.126755e+000
      vertex  5.838814e+000 -8.708898e+000 -7.253386e+000
      vertex -9.928164e+000 -7.631284e+000 -7.877029e-001
    endloop
  endfacet
  facet normal -2.523579e-008  9.863940e-001 -1.643990e-001
    outer loop
      vertex  5.398834e+000 -1.127187e+000 -6.763120e+000
      vertex  5.112275e+000 -1.664484e+000 -9.986906e+000
      vertex -3.106364e+000 -5.425569e+000 -3.255341e+001
    endloop
  endfacet
  facet normal -1.577238e-007  9.863939e-001 -1.643989e-001
    outer loop
      vertex -3.106364e+000 -5.425569e+000 -3.255341e+001
      vertex  5.112275e+000 -1.664484e+000 -9.986906e+000
      vertex  4.825716e+000 -2.201782e+000 -1.321069e+001
    endloop
  endfacet
  facet normal -8.832527e-008  9.863940e-001 -1.643990e-001
    outer loop
      vertex -3.106364e+000 -5.425569e+000 -3.255341e+001
      vertex  4.825716e+000 -2.201782e+000 -1.321069e+001
      vertex  4.539157e+000 -2.739080e+000 -1.643448e+001
    endloop
  endfacet
  facet normal -1.892684e-007  9.863940e-001 -1.643989e-001
    outer loop
      vertex -3.106364e+000 -5.425569e+000 -3.255341e+001
      vertex  4.539157e+000 -2.739080e+000 -1.643448e+001
      vertex  4.252599e+000 -3.276377e+000 -1.965827e+001
    endloop
  endfacet
  facet normal  1.261791e-008  9.863939e-001 -1.643990e-001
    outer loop
      vertex -3.106364e+000 -5.425569e+000 -3.255341e+001
      vertex  4.252599e+000 -3.276377e+000 -1.965827e+001
      vertex  3.966040e+000 -3.813675e+000 -2.288205e+001
    endloop
  endfacet
  facet normal -2.523581e-008  9.863939e-001 -1.643990e-001
    outer loop
      vertex -3.106364e+000 -5.425569e+000 -3.255341e+001
      vertex  3.966040e+000 -3.813675e+000 -2.288205e+001
      vertex  3.679481e+000 -4.350973e+000 -2.610584e+001
    endloop
  endfacet
  facet normal  0.000000e+000  9.863940e-001 -1.643990e-001
    outer loop
      vertex -3.106364e+000 -5.425569e+000 -3.255341e+001
      vertex  3.679481e+000 -4.350973e+000 -2.610584e+001
      vertex  3.392922e+000 -4.888271e+000 -2.932962e+001
    endloop
  endfacet
  facet normal  0.000000e+000  9.863940e-001 -1.643990e-001
    outer loop
      vertex -3.106364e+000 -5.425569e+000 -3.255341e+001
      vertex  3.392922e+000 -4.888271e+000 -2.932962e+001
      vertex  3.106364e+000 -5.425569e+000 -3.255341e+001
    endloop
  endfacet
  facet normal -8.196000e-006  9.863946e-001 -1.643954e-001
    outer loop
      vertex  6.106168e+000 -6.989843e-001 -4.193905e+000
      vertex  5.842456e+000 -8.018376e-001 -4.811026e+000
      vertex -3.679481e+000 -4.350974e+000 -2.610584e+001
    endloop
  endfacet
  facet normal  1.228709e-007  9.863939e-001 -1.643990e-001
    outer loop
      vertex  6.106168e+000 -6.989843e-001 -4.193905e+000
      vertex -3.679481e+000 -4.350974e+000 -2.610584e+001
      vertex -3.966039e+000 -3.813676e+000 -2.288206e+001
    endloop
  endfacet
  facet normal -1.200562e-008  9.863939e-001 -1.643990e-001
    outer loop
      vertex  6.106168e+000 -6.989843e-001 -4.193905e+000
      vertex -3.966039e+000 -3.813676e+000 -2.288206e+001
      vertex -4.252598e+000 -3.276379e+000 -1.965827e+001
    endloop
  endfacet
  facet normal -1.014443e-006  9.863940e-001 -1.643983e-001
    outer loop
      vertex  6.106168e+000 -6.989843e-001 -4.193905e+000
      vertex -4.252598e+000 -3.276379e+000 -1.965827e+001
      vertex  6.425312e+000 -6.003501e-001 -3.602101e+000
    endloop
  endfacet
  facet normal  3.531683e-009  9.863939e-001 -1.643990e-001
    outer loop
      vertex  9.876992e+000 -9.948517e-002 -5.969110e-001
      vertex  9.279336e+000 -1.472496e-001 -8.834978e-001
      vertex -5.398833e+000 -1.127189e+000 -6.763133e+000
    endloop
  endfacet
  facet normal -7.416870e-008  9.863939e-001 -1.643988e-001
    outer loop
      vertex  9.876992e+000 -9.948517e-002 -5.969110e-001
      vertex -5.398833e+000 -1.127189e+000 -6.763133e+000
      vertex -5.474867e+000 -1.029039e+000 -6.174236e+000
    endloop
  endfacet
  facet normal  5.972827e-008  9.863938e-001 -1.643991e-001
    outer loop
      vertex  9.876992e+000 -9.948517e-002 -5.969110e-001
      vertex -5.474867e+000 -1.029039e+000 -6.174236e+000
      vertex -5.580871e+000 -9.434386e-001 -5.660632e+000
    endloop
  endfacet
  facet normal -3.685756e-009  9.863939e-001 -1.643990e-001
    outer loop
      vertex  1.049838e+001 -6.074229e-002 -3.644538e-001
      vertex  9.876992e+000 -9.948517e-002 -5.969110e-001
      vertex -5.580871e+000 -9.434386e-001 -5.660632e+000
    endloop
  endfacet
  facet normal -1.618833e-008  9.863939e-001 -1.643989e-001
    outer loop
      vertex  1.049838e+001 -6.074229e-002 -3.644538e-001
      vertex -5.580871e+000 -9.434386e-001 -5.660632e+000
      vertex -5.767357e+000 -8.368141e-001 -5.020885e+000
    endloop
  endfacet
  facet normal  8.117287e-009  9.863939e-001 -1.643990e-001
    outer loop
      vertex  1.049838e+001 -6.074229e-002 -3.644538e-001
      vertex -5.767357e+000 -8.368141e-001 -5.020885e+000
      vertex -6.010919e+000 -7.332418e-001 -4.399451e+000
    endloop
  endfacet
  facet normal  1.047519e-008  9.863939e-001 -1.643990e-001
    outer loop
      vertex  1.113833e+001 -3.134212e-002 -1.880527e-001
      vertex  1.049838e+001 -6.074229e-002 -3.644538e-001
      vertex -6.010919e+000 -7.332418e-001 -4.399451e+000
    endloop
  endfacet
  facet normal  9.202529e-009  9.863940e-001 -1.643990e-001
    outer loop
      vertex  1.113833e+001 -3.134212e-002 -1.880527e-001
      vertex -6.010919e+000 -7.332418e-001 -4.399451e+000
      vertex -6.310009e+000 -6.335639e-001 -3.801384e+000
    endloop
  endfacet
  facet normal -3.327604e-009  9.863940e-001 -1.643990e-001
    outer loop
      vertex  1.113833e+001 -3.134212e-002 -1.880527e-001
      vertex -6.310009e+000 -6.335639e-001 -3.801384e+000
      vertex -6.662596e+000 -5.386111e-001 -3.231666e+000
    endloop
  endfacet
  facet normal  4.717864e-009  9.863939e-001 -1.643990e-001
    outer loop
      vertex  1.113833e+001 -3.134212e-002 -1.880527e-001
      vertex -6.662596e+000 -5.386111e-001 -3.231666e+000
      vertex -7.066170e+000 -4.491902e-001 -2.695141e+000
    endloop
  endfacet
  facet normal -7.218674e-009  9.863939e-001 -1.643989e-001
    outer loop
      vertex  1.179155e+001 -1.151626e-002 -6.909759e-002
      vertex  1.113833e+001 -3.134212e-002 -1.880527e-001
      vertex -7.066170e+000 -4.491902e-001 -2.695141e+000
    endloop
  endfacet
  facet normal  1.384553e-009  9.863939e-001 -1.643990e-001
    outer loop
      vertex  1.179155e+001 -1.151626e-002 -6.909759e-002
      vertex -7.066170e+000 -4.491902e-001 -2.695141e+000
      vertex -7.509968e+000 -3.673808e-001 -2.204285e+000
    endloop
  endfacet
  facet normal -7.908036e-010  9.863939e-001 -1.643990e-001
    outer loop
      vertex  1.179155e+001 -1.151626e-002 -6.909759e-002
      vertex -7.509968e+000 -3.673808e-001 -2.204285e+000
      vertex -7.996876e+000 -2.923689e-001 -1.754213e+000
    endloop
  endfacet
  facet normal -1.853477e-009  9.863939e-001 -1.643990e-001
    outer loop
      vertex  1.179155e+001 -1.151626e-002 -6.909759e-002
      vertex -7.996876e+000 -2.923689e-001 -1.754213e+000
      vertex -8.523115e+000 -2.248035e-001 -1.348821e+000
    endloop
  endfacet
  facet normal -2.175109e-009  9.863939e-001 -1.643990e-001
    outer loop
      vertex  1.229888e+001 -2.879400e-003 -1.727640e-002
      vertex  1.179155e+001 -1.151626e-002 -6.909759e-002
      vertex -8.523115e+000 -2.248035e-001 -1.348821e+000
    endloop
  endfacet
  facet normal  9.527429e-010  9.863940e-001 -1.643990e-001
    outer loop
      vertex  1.229888e+001 -2.879400e-003 -1.727640e-002
      vertex -8.523115e+000 -2.248035e-001 -1.348821e+000
      vertex -9.084491e+000 -1.652743e-001 -9.916456e-001
    endloop
  endfacet
  facet normal -2.105556e-010  9.863939e-001 -1.643990e-001
    outer loop
      vertex  1.229888e+001 -2.879400e-003 -1.727640e-002
      vertex -9.084491e+000 -1.652743e-001 -9.916456e-001
      vertex -9.676433e+000 -1.143015e-001 -6.858088e-001
    endloop
  endfacet
  facet normal -1.798020e-010  9.863939e-001 -1.643990e-001
    outer loop
      vertex  1.229888e+001 -2.879400e-003 -1.727640e-002
      vertex -9.676433e+000 -1.143015e-001 -6.858088e-001
      vertex -1.027389e+001 -7.352854e-002 -4.411712e-001
    endloop
  endfacet
  facet normal  2.258421e-010  9.863939e-001 -1.643990e-001
    outer loop
      vertex  1.229888e+001 -2.879400e-003 -1.727640e-002
      vertex -1.027389e+001 -7.352854e-002 -4.411712e-001
      vertex -1.089072e+001 -4.150940e-002 -2.490564e-001
    endloop
  endfacet
  facet normal -1.376966e-010  9.863940e-001 -1.643990e-001
    outer loop
      vertex  1.280838e+001  1.221245e-015  2.109424e-015
      vertex  1.229888e+001 -2.879400e-003 -1.727640e-002
      vertex -1.089072e+001 -4.150940e-002 -2.490564e-001
    endloop
  endfacet
  facet normal -8.891790e-011  9.863939e-001 -1.643990e-001
    outer loop
      vertex  1.280838e+001  1.221245e-015  2.109424e-015
      vertex -1.089072e+001 -4.150940e-002 -2.490564e-001
      vertex -1.152206e+001 -1.848758e-002 -1.109255e-001
    endloop
  endfacet
  facet normal  1.622497e-011  9.863940e-001 -1.643990e-001
    outer loop
      vertex  1.280838e+001  1.221245e-015  2.109424e-015
      vertex -1.152206e+001 -1.848758e-002 -1.109255e-001
      vertex -1.216294e+001 -4.624769e-003 -2.774861e-002
    endloop
  endfacet
  facet normal  0.000000e+000  9.863939e-001 -1.643990e-001
    outer loop
      vertex  1.280838e+001  1.221245e-015  2.109424e-015
      vertex -1.216294e+001 -4.624769e-003 -2.774861e-002
      vertex -1.280835e+001  1.942890e-016 -4.662937e-015
    endloop
  endfacet
  facet normal -5.223120e-008  9.863939e-001 -1.643990e-001
    outer loop
      vertex -3.679481e+000 -4.350974e+000 -2.610584e+001
      vertex  5.842456e+000 -8.018376e-001 -4.811026e+000
      vertex -3.392922e+000 -4.888271e+000 -2.932963e+001
    endloop
  endfacet
  facet normal  2.339057e-006  9.863938e-001 -1.643998e-001
    outer loop
      vertex -3.392922e+000 -4.888271e+000 -2.932963e+001
      vertex  5.842456e+000 -8.018376e-001 -4.811026e+000
      vertex  5.635903e+000 -9.080613e-001 -5.448368e+000
    endloop
  endfacet
  facet normal  4.756979e-007  9.863939e-001 -1.643992e-001
    outer loop
      vertex -3.392922e+000 -4.888271e+000 -2.932963e+001
      vertex  5.635903e+000 -9.080613e-001 -5.448368e+000
      vertex -3.106364e+000 -5.425569e+000 -3.255341e+001
    endloop
  endfacet
  facet normal  7.309236e-006  9.863935e-001 -1.644013e-001
    outer loop
      vertex -3.106364e+000 -5.425569e+000 -3.255341e+001
      vertex  5.635903e+000 -9.080613e-001 -5.448368e+000
      vertex  5.487762e+000 -1.016797e+000 -6.100785e+000
    endloop
  endfacet
  facet normal  5.898008e-007  9.863939e-001 -1.643992e-001
    outer loop
      vertex -3.106364e+000 -5.425569e+000 -3.255341e+001
      vertex  5.487762e+000 -1.016797e+000 -6.100785e+000
      vertex  5.398834e+000 -1.127187e+000 -6.763120e+000
    endloop
  endfacet
  facet normal  4.966109e-005  9.863886e-001 -1.644311e-001
    outer loop
      vertex  6.425312e+000 -6.003501e-001 -3.602101e+000
      vertex -4.252598e+000 -3.276379e+000 -1.965827e+001
      vertex  6.791111e+000 -5.082665e-001 -3.049599e+000
    endloop
  endfacet
  facet normal -3.225762e-008  9.863939e-001 -1.643990e-001
    outer loop
      vertex  6.791111e+000 -5.082665e-001 -3.049599e+000
      vertex -4.252598e+000 -3.276379e+000 -1.965827e+001
      vertex -4.539157e+000 -2.739081e+000 -1.643449e+001
    endloop
  endfacet
  facet normal -1.251313e-007  9.863940e-001 -1.643989e-001
    outer loop
      vertex  6.791111e+000 -5.082665e-001 -3.049599e+000
      vertex -4.539157e+000 -2.739081e+000 -1.643449e+001
      vertex  7.205808e+000 -4.218383e-001 -2.531030e+000
    endloop
  endfacet
  facet normal  2.000593e-008  9.863939e-001 -1.643990e-001
    outer loop
      vertex  7.205808e+000 -4.218383e-001 -2.531030e+000
      vertex -4.539157e+000 -2.739081e+000 -1.643449e+001
      vertex -4.825716e+000 -2.201784e+000 -1.321070e+001
    endloop
  endfacet
  facet normal -4.870665e-007  9.863940e-001 -1.643985e-001
    outer loop
      vertex  7.205808e+000 -4.218383e-001 -2.531030e+000
      vertex -4.825716e+000 -2.201784e+000 -1.321070e+001
      vertex  7.666336e+000 -3.418024e-001 -2.050815e+000
    endloop
  endfacet
  facet normal -7.155838e-009  9.863939e-001 -1.643990e-001
    outer loop
      vertex  7.666336e+000 -3.418024e-001 -2.050815e+000
      vertex -4.825716e+000 -2.201784e+000 -1.321070e+001
      vertex -5.112274e+000 -1.664486e+000 -9.986917e+000
    endloop
  endfacet
  facet normal  5.822752e-007  9.863939e-001 -1.643999e-001
    outer loop
      vertex  7.666336e+000 -3.418024e-001 -2.050815e+000
      vertex -5.112274e+000 -1.664486e+000 -9.986917e+000
      vertex  8.169165e+000 -2.688530e-001 -1.613118e+000
    endloop
  endfacet
  facet normal -5.618935e-007  9.863941e-001 -1.643981e-001
    outer loop
      vertex  8.169165e+000 -2.688530e-001 -1.613118e+000
      vertex -5.112274e+000 -1.664486e+000 -9.986917e+000
      vertex  8.710321e+000 -2.036296e-001 -1.221778e+000
    endloop
  endfacet
  facet normal  9.228162e-009  9.863939e-001 -1.643990e-001
    outer loop
      vertex  8.710321e+000 -2.036296e-001 -1.221778e+000
      vertex -5.112274e+000 -1.664486e+000 -9.986917e+000
      vertex -5.398833e+000 -1.127189e+000 -6.763133e+000
    endloop
  endfacet
  facet normal -2.011425e-007  9.863940e-001 -1.643985e-001
    outer loop
      vertex  8.710321e+000 -2.036296e-001 -1.221778e+000
      vertex -5.398833e+000 -1.127189e+000 -6.763133e+000
      vertex  9.279336e+000 -1.472496e-001 -8.834978e-001
    endloop
  endfacet
  facet normal -9.880928e-001  1.111762e-001 -1.063598e-001
    outer loop
      vertex -4.825716e+000 -2.201784e+000 -1.321070e+001
      vertex -5.085807e+000 -3.984676e+000 -1.265805e+001
      vertex -5.112274e+000 -1.664486e+000 -9.986917e+000
    endloop
  endfacet
  facet normal -9.929069e-001  1.117179e-001 -4.068435e-002
    outer loop
      vertex -5.507742e+000 -7.734675e+000 -1.265805e+001
      vertex -5.698257e+000 -9.763067e+000 -1.357841e+001
      vertex -5.768536e+000 -9.235984e+000 -1.041590e+001
    endloop
  endfacet
  facet normal -9.942879e-001  9.205697e-002 -5.400961e-002
    outer loop
      vertex -5.507742e+000 -7.734675e+000 -1.265805e+001
      vertex -5.768536e+000 -9.235984e+000 -1.041590e+001
      vertex -5.622366e+000 -7.243432e+000 -9.710593e+000
    endloop
  endfacet
  facet normal -9.844753e-001  1.365622e-001 -1.102693e-001
    outer loop
      vertex -4.539157e+000 -2.739081e+000 -1.643449e+001
      vertex -4.872935e+000 -4.475919e+000 -1.560551e+001
      vertex -4.825716e+000 -2.201784e+000 -1.321070e+001
    endloop
  endfacet
  facet normal -9.895181e-001  1.372616e-001 -4.486620e-002
    outer loop
      vertex -5.393119e+000 -8.225919e+000 -1.560551e+001
      vertex -5.627980e+000 -1.029015e+001 -1.674091e+001
      vertex -5.698257e+000 -9.763067e+000 -1.357841e+001
    endloop
  endfacet
  facet normal -9.910957e-001  1.196221e-001 -5.847966e-002
    outer loop
      vertex -5.393119e+000 -8.225919e+000 -1.560551e+001
      vertex -5.698257e+000 -9.763067e+000 -1.357841e+001
      vertex -5.507742e+000 -7.734675e+000 -1.265805e+001
    endloop
  endfacet
  facet normal -9.802319e-001  1.616551e-001 -1.140742e-001
    outer loop
      vertex -4.252598e+000 -3.276379e+000 -1.965827e+001
      vertex -4.660063e+000 -4.967162e+000 -1.855297e+001
      vertex -4.539157e+000 -2.739081e+000 -1.643449e+001
    endloop
  endfacet
  facet normal -9.854881e-001  1.625221e-001 -4.898673e-002
    outer loop
      vertex -5.278495e+000 -8.717162e+000 -1.855297e+001
      vertex -5.557702e+000 -1.081723e+001 -1.990341e+001
      vertex -5.627980e+000 -1.029015e+001 -1.674091e+001
    endloop
  endfacet
  facet normal -9.871519e-001  1.468961e-001 -6.287194e-002
    outer loop
      vertex -5.278495e+000 -8.717162e+000 -1.855297e+001
      vertex -5.627980e+000 -1.029015e+001 -1.674091e+001
      vertex -5.393119e+000 -8.225919e+000 -1.560551e+001
    endloop
  endfacet
  facet normal -9.808404e-001  1.874534e-001 -5.303869e-002
    outer loop
      vertex -5.163872e+000 -9.208405e+000 -2.150043e+001
      vertex -5.487424e+000 -1.134432e+001 -2.306591e+001
      vertex -5.557702e+000 -1.081723e+001 -1.990341e+001
    endloop
  endfacet
  facet normal -9.700386e-001  2.250993e-001 -9.140754e-002
    outer loop
      vertex -3.679481e+000 -4.350974e+000 -2.610584e+001
      vertex -4.396162e+000 -8.561514e+000 -2.886909e+001
      vertex -4.600847e+000 -7.947460e+000 -2.518476e+001
    endloop
  endfacet
  facet normal -9.630731e-001  2.507378e-001 -9.808552e-002
    outer loop
      vertex -3.392922e+000 -4.888271e+000 -2.932963e+001
      vertex -4.084956e+000 -8.807447e+000 -3.255341e+001
      vertex -4.396162e+000 -8.561514e+000 -2.886909e+001
    endloop
  endfacet
  facet normal -9.608349e-001  2.465638e-001 -1.265015e-001
    outer loop
      vertex -3.392922e+000 -4.888271e+000 -2.932963e+001
      vertex -4.396162e+000 -8.561514e+000 -2.886909e+001
      vertex -3.679481e+000 -4.350974e+000 -2.610584e+001
    endloop
  endfacet
  facet normal -9.667029e-001  2.480695e-001 -6.282731e-002
    outer loop
      vertex -5.346869e+000 -1.239849e+001 -2.939091e+001
      vertex -5.417147e+000 -1.187140e+001 -2.622841e+001
      vertex -4.396162e+000 -8.561514e+000 -2.886909e+001
    endloop
  endfacet
  facet normal -9.697918e-001  2.260986e-001 -9.156038e-002
    outer loop
      vertex -4.396162e+000 -8.561514e+000 -2.886909e+001
      vertex -5.417147e+000 -1.187140e+001 -2.622841e+001
      vertex -4.600847e+000 -7.947460e+000 -2.518476e+001
    endloop
  endfacet
  facet normal -9.523671e-001  2.755804e-001 -1.305850e-001
    outer loop
      vertex -3.106364e+000 -5.425569e+000 -3.255341e+001
      vertex -4.084956e+000 -8.807447e+000 -3.255341e+001
      vertex -3.392922e+000 -4.888271e+000 -2.932963e+001
    endloop
  endfacet
  facet normal -9.753537e-001  2.023759e-001 -8.791560e-002
    outer loop
      vertex -4.314146e+000 -5.765433e+000 -2.334260e+001
      vertex -4.600847e+000 -7.947460e+000 -2.518476e+001
      vertex -4.703189e+000 -7.640433e+000 -2.334260e+001
    endloop
  endfacet
  facet normal -9.584006e-001  2.773257e-001 -6.751871e-002
    outer loop
      vertex -5.063550e+000 -1.218933e+001 -3.255341e+001
      vertex -5.276591e+000 -1.292557e+001 -3.255341e+001
      vertex -5.346869e+000 -1.239849e+001 -2.939091e+001
    endloop
  endfacet
  facet normal -9.659954e-001  2.488806e-001 -7.008039e-002
    outer loop
      vertex -5.063550e+000 -1.218933e+001 -3.255341e+001
      vertex -5.346869e+000 -1.239849e+001 -2.939091e+001
      vertex -4.396162e+000 -8.561514e+000 -2.886909e+001
    endloop
  endfacet
  facet normal -9.558542e-001  2.765896e-001 -9.920140e-002
    outer loop
      vertex -5.063550e+000 -1.218933e+001 -3.255341e+001
      vertex -4.396162e+000 -8.561514e+000 -2.886909e+001
      vertex -4.084956e+000 -8.807447e+000 -3.255341e+001
    endloop
  endfacet
  facet normal -9.956334e-001  8.593947e-002 -3.644840e-002
    outer loop
      vertex -5.768536e+000 -9.235984e+000 -1.041590e+001
      vertex -5.838813e+000 -8.708900e+000 -7.253403e+000
      vertex -5.622366e+000 -7.243432e+000 -9.710593e+000
    endloop
  endfacet
  facet normal -9.967061e-001  6.426243e-002 -4.947107e-002
    outer loop
      vertex -5.622366e+000 -7.243432e+000 -9.710593e+000
      vertex -5.838813e+000 -8.708900e+000 -7.253403e+000
      vertex -5.722708e+000 -6.813365e+000 -7.130320e+000
    endloop
  endfacet
  facet normal -9.948950e-001  8.587579e-002 -5.300304e-002
    outer loop
      vertex -5.622366e+000 -7.243432e+000 -9.710593e+000
      vertex -5.722708e+000 -6.813365e+000 -7.130320e+000
      vertex -5.460523e+000 -5.368432e+000 -9.710593e+000
    endloop
  endfacet
  facet normal -9.958318e-001  6.311632e-002 -6.584336e-002
    outer loop
      vertex -5.460523e+000 -5.368432e+000 -9.710593e+000
      vertex -5.722708e+000 -6.813365e+000 -7.130320e+000
      vertex -5.610694e+000 -4.917935e+000 -7.007519e+000
    endloop
  endfacet
  facet normal -9.938853e-001  8.578864e-002 -6.951381e-002
    outer loop
      vertex -5.460523e+000 -5.368432e+000 -9.710593e+000
      vertex -5.610694e+000 -4.917935e+000 -7.007519e+000
      vertex -5.298679e+000 -3.493432e+000 -9.710593e+000
    endloop
  endfacet
  facet normal -9.946910e-001  6.195841e-002 -8.216519e-002
    outer loop
      vertex -5.298679e+000 -3.493432e+000 -9.710593e+000
      vertex -5.610694e+000 -4.917935e+000 -7.007519e+000
      vertex -5.502746e+000 -3.022561e+000 -6.885093e+000
    endloop
  endfacet
  facet normal -9.923621e-001  8.809452e-002 -8.635258e-002
    outer loop
      vertex -5.298679e+000 -3.493432e+000 -9.710593e+000
      vertex -5.502746e+000 -3.022561e+000 -6.885093e+000
      vertex -5.112274e+000 -1.664486e+000 -9.986917e+000
    endloop
  endfacet
  facet normal -9.932861e-001  6.078983e-002 -9.842375e-002
    outer loop
      vertex -5.112274e+000 -1.664486e+000 -9.986917e+000
      vertex -5.502746e+000 -3.022561e+000 -6.885093e+000
      vertex -5.398833e+000 -1.127189e+000 -6.763133e+000
    endloop
  endfacet
  facet normal -9.685295e-001  2.168194e-001 -1.222281e-001
    outer loop
      vertex -3.679481e+000 -4.350974e+000 -2.610584e+001
      vertex -4.600847e+000 -7.947460e+000 -2.518476e+001
      vertex -3.966039e+000 -3.813676e+000 -2.288206e+001
    endloop
  endfacet
  facet normal -9.784184e-001  1.923307e-001 -7.554021e-002
    outer loop
      vertex -3.966039e+000 -3.813676e+000 -2.288206e+001
      vertex -4.600847e+000 -7.947460e+000 -2.518476e+001
      vertex -4.314146e+000 -5.765433e+000 -2.334260e+001
    endloop
  endfacet
  facet normal -9.720671e-001  2.016939e-001 -1.200216e-001
    outer loop
      vertex -3.966039e+000 -3.813676e+000 -2.288206e+001
      vertex -4.314146e+000 -5.765433e+000 -2.334260e+001
      vertex -4.252598e+000 -3.276379e+000 -1.965827e+001
    endloop
  endfacet
  facet normal -9.802014e-001  1.712804e-001 -9.933908e-002
    outer loop
      vertex -4.252598e+000 -3.276379e+000 -1.965827e+001
      vertex -4.314146e+000 -5.765433e+000 -2.334260e+001
      vertex -4.447191e+000 -5.458406e+000 -2.150043e+001
    endloop
  endfacet
  facet normal -9.802014e-001  1.712804e-001 -9.933905e-002
    outer loop
      vertex -4.252598e+000 -3.276379e+000 -1.965827e+001
      vertex -4.447191e+000 -5.458406e+000 -2.150043e+001
      vertex -4.660063e+000 -4.967162e+000 -1.855297e+001
    endloop
  endfacet
  facet normal -9.742039e-001  2.180897e-001 -5.799723e-002
    outer loop
      vertex -5.417147e+000 -1.187140e+001 -2.622841e+001
      vertex -5.487424e+000 -1.134432e+001 -2.306591e+001
      vertex -4.600847e+000 -7.947460e+000 -2.518476e+001
    endloop
  endfacet
  facet normal -9.760299e-001  1.968668e-001 -9.278511e-002
    outer loop
      vertex -4.600847e+000 -7.947460e+000 -2.518476e+001
      vertex -5.487424e+000 -1.134432e+001 -2.306591e+001
      vertex -5.092232e+000 -9.515433e+000 -2.334260e+001
    endloop
  endfacet
  facet normal -9.753537e-001  2.023759e-001 -8.791560e-002
    outer loop
      vertex -4.600847e+000 -7.947460e+000 -2.518476e+001
      vertex -5.092232e+000 -9.515433e+000 -2.334260e+001
      vertex -4.703189e+000 -7.640433e+000 -2.334260e+001
    endloop
  endfacet
  facet normal -9.921033e-001  1.116275e-001 -5.718641e-002
    outer loop
      vertex -5.507742e+000 -7.734675e+000 -1.265805e+001
      vertex -5.622366e+000 -7.243432e+000 -9.710593e+000
      vertex -5.296775e+000 -5.859675e+000 -1.265805e+001
    endloop
  endfacet
  facet normal -9.938854e-001  8.578863e-002 -6.951396e-002
    outer loop
      vertex -5.296775e+000 -5.859675e+000 -1.265805e+001
      vertex -5.622366e+000 -7.243432e+000 -9.710593e+000
      vertex -5.460523e+000 -5.368432e+000 -9.710593e+000
    endloop
  endfacet
  facet normal -9.910314e-001  1.115069e-001 -7.364178e-002
    outer loop
      vertex -5.296775e+000 -5.859675e+000 -1.265805e+001
      vertex -5.460523e+000 -5.368432e+000 -9.710593e+000
      vertex -5.085807e+000 -3.984676e+000 -1.265805e+001
    endloop
  endfacet
  facet normal -9.926071e-001  8.567829e-002 -8.596797e-002
    outer loop
      vertex -5.085807e+000 -3.984676e+000 -1.265805e+001
      vertex -5.460523e+000 -5.368432e+000 -9.710593e+000
      vertex -5.298679e+000 -3.493432e+000 -9.710593e+000
    endloop
  endfacet
  facet normal -9.923620e-001  8.809446e-002 -8.635297e-002
    outer loop
      vertex -5.085807e+000 -3.984676e+000 -1.265805e+001
      vertex -5.298679e+000 -3.493432e+000 -9.710593e+000
      vertex -5.112274e+000 -1.664486e+000 -9.986917e+000
    endloop
  endfacet
  facet normal -9.886525e-001  1.371415e-001 -6.130456e-002
    outer loop
      vertex -5.393119e+000 -8.225919e+000 -1.560551e+001
      vertex -5.507742e+000 -7.734675e+000 -1.265805e+001
      vertex -5.133027e+000 -6.350919e+000 -1.560551e+001
    endloop
  endfacet
  facet normal -9.910314e-001  1.115069e-001 -7.364178e-002
    outer loop
      vertex -5.133027e+000 -6.350919e+000 -1.560551e+001
      vertex -5.507742e+000 -7.734675e+000 -1.265805e+001
      vertex -5.296775e+000 -5.859675e+000 -1.265805e+001
    endloop
  endfacet
  facet normal -9.875217e-001  1.369847e-001 -7.769310e-002
    outer loop
      vertex -5.133027e+000 -6.350919e+000 -1.560551e+001
      vertex -5.296775e+000 -5.859675e+000 -1.265805e+001
      vertex -4.872935e+000 -4.475919e+000 -1.560551e+001
    endloop
  endfacet
  facet normal -9.896935e-001  1.113564e-001 -9.003722e-002
    outer loop
      vertex -4.872935e+000 -4.475919e+000 -1.560551e+001
      vertex -5.296775e+000 -5.859675e+000 -1.265805e+001
      vertex -5.085807e+000 -3.984676e+000 -1.265805e+001
    endloop
  endfacet
  facet normal -9.890740e-001  1.161454e-001 -9.079065e-002
    outer loop
      vertex -4.872935e+000 -4.475919e+000 -1.560551e+001
      vertex -5.085807e+000 -3.984676e+000 -1.265805e+001
      vertex -4.825716e+000 -2.201784e+000 -1.321070e+001
    endloop
  endfacet
  facet normal -9.845636e-001  1.623695e-001 -6.535017e-002
    outer loop
      vertex -5.278495e+000 -8.717162e+000 -1.855297e+001
      vertex -5.393119e+000 -8.225919e+000 -1.560551e+001
      vertex -4.969279e+000 -6.842162e+000 -1.855297e+001
    endloop
  endfacet
  facet normal -9.875216e-001  1.369847e-001 -7.769307e-002
    outer loop
      vertex -4.969279e+000 -6.842162e+000 -1.855297e+001
      vertex -5.393119e+000 -8.225919e+000 -1.560551e+001
      vertex -5.133027e+000 -6.350919e+000 -1.560551e+001
    endloop
  endfacet
  facet normal -9.833774e-001  1.621741e-001 -8.166108e-002
    outer loop
      vertex -4.969279e+000 -6.842162e+000 -1.855297e+001
      vertex -5.133027e+000 -6.350919e+000 -1.560551e+001
      vertex -4.660063e+000 -4.967162e+000 -1.855297e+001
    endloop
  endfacet
  facet normal -9.861281e-001  1.367914e-001 -9.401901e-002
    outer loop
      vertex -4.660063e+000 -4.967162e+000 -1.855297e+001
      vertex -5.133027e+000 -6.350919e+000 -1.560551e+001
      vertex -4.872935e+000 -4.475919e+000 -1.560551e+001
    endloop
  endfacet
  facet normal -9.850107e-001  1.438946e-001 -9.512220e-002
    outer loop
      vertex -4.660063e+000 -4.967162e+000 -1.855297e+001
      vertex -4.872935e+000 -4.475919e+000 -1.560551e+001
      vertex -4.539157e+000 -2.739081e+000 -1.643449e+001
    endloop
  endfacet
  facet normal -9.819323e-001  1.619358e-001 -9.790663e-002
    outer loop
      vertex -4.660063e+000 -4.967162e+000 -1.855297e+001
      vertex -4.447191e+000 -5.458406e+000 -2.150043e+001
      vertex -4.969279e+000 -6.842162e+000 -1.855297e+001
    endloop
  endfacet
  facet normal -9.786230e-001  1.870296e-001 -8.553958e-002
    outer loop
      vertex -4.969279e+000 -6.842162e+000 -1.855297e+001
      vertex -4.447191e+000 -5.458406e+000 -2.150043e+001
      vertex -4.805532e+000 -7.333406e+000 -2.150043e+001
    endloop
  endfacet
  facet normal -9.833774e-001  1.621739e-001 -8.166108e-002
    outer loop
      vertex -4.969279e+000 -6.842162e+000 -1.855297e+001
      vertex -4.805532e+000 -7.333406e+000 -2.150043e+001
      vertex -5.278495e+000 -8.717162e+000 -1.855297e+001
    endloop
  endfacet
  facet normal -9.798605e-001  1.872659e-001 -6.931671e-002
    outer loop
      vertex -5.278495e+000 -8.717162e+000 -1.855297e+001
      vertex -4.805532e+000 -7.333406e+000 -2.150043e+001
      vertex -5.163872e+000 -9.208405e+000 -2.150043e+001
    endloop
  endfacet
  facet normal -9.824834e-001  1.738202e-001 -6.717776e-002
    outer loop
      vertex -5.278495e+000 -8.717162e+000 -1.855297e+001
      vertex -5.163872e+000 -9.208405e+000 -2.150043e+001
      vertex -5.557702e+000 -1.081723e+001 -1.990341e+001
    endloop
  endfacet
  facet normal -9.771309e-001  1.867444e-001 -1.016946e-001
    outer loop
      vertex -4.447191e+000 -5.458406e+000 -2.150043e+001
      vertex -4.314146e+000 -5.765433e+000 -2.334260e+001
      vertex -4.805532e+000 -7.333406e+000 -2.150043e+001
    endloop
  endfacet
  facet normal -9.753538e-001  2.023759e-001 -8.791572e-002
    outer loop
      vertex -4.805532e+000 -7.333406e+000 -2.150043e+001
      vertex -4.314146e+000 -5.765433e+000 -2.334260e+001
      vertex -4.703189e+000 -7.640433e+000 -2.334260e+001
    endloop
  endfacet
  facet normal -9.786230e-001  1.870294e-001 -8.553959e-002
    outer loop
      vertex -4.805532e+000 -7.333406e+000 -2.150043e+001
      vertex -4.703189e+000 -7.640433e+000 -2.334260e+001
      vertex -5.163872e+000 -9.208405e+000 -2.150043e+001
    endloop
  endfacet
  facet normal -9.766212e-001  2.026388e-001 -7.175285e-002
    outer loop
      vertex -5.163872e+000 -9.208405e+000 -2.150043e+001
      vertex -4.703189e+000 -7.640433e+000 -2.334260e+001
      vertex -5.092232e+000 -9.515433e+000 -2.334260e+001
    endloop
  endfacet
  facet normal -9.771221e-001  2.003397e-001 -7.138914e-002
    outer loop
      vertex -5.163872e+000 -9.208405e+000 -2.150043e+001
      vertex -5.092232e+000 -9.515433e+000 -2.334260e+001
      vertex -5.487424e+000 -1.134432e+001 -2.306591e+001
    endloop
  endfacet
  facet normal  9.929069e-001  1.117177e-001 -4.068415e-002
    outer loop
      vertex  5.698258e+000 -9.763065e+000 -1.357839e+001
      vertex  5.507743e+000 -7.734674e+000 -1.265804e+001
      vertex  5.768536e+000 -9.235982e+000 -1.041589e+001
    endloop
  endfacet
  facet normal  9.895182e-001  1.372616e-001 -4.486619e-002
    outer loop
      vertex  5.627980e+000 -1.029015e+001 -1.674090e+001
      vertex  5.393119e+000 -8.225918e+000 -1.560550e+001
      vertex  5.698258e+000 -9.763065e+000 -1.357839e+001
    endloop
  endfacet
  facet normal  9.844753e-001  1.365621e-001 -1.102692e-001
    outer loop
      vertex  4.872936e+000 -4.475917e+000 -1.560550e+001
      vertex  4.539157e+000 -2.739080e+000 -1.643448e+001
      vertex  4.825716e+000 -2.201782e+000 -1.321069e+001
    endloop
  endfacet
  facet normal  9.890741e-001  1.161454e-001 -9.079063e-002
    outer loop
      vertex  4.872936e+000 -4.475917e+000 -1.560550e+001
      vertex  4.825716e+000 -2.201782e+000 -1.321069e+001
      vertex  5.085808e+000 -3.984674e+000 -1.265804e+001
    endloop
  endfacet
  facet normal  9.854882e-001  1.625220e-001 -4.898682e-002
    outer loop
      vertex  5.557702e+000 -1.081723e+001 -1.990340e+001
      vertex  5.278496e+000 -8.717161e+000 -1.855297e+001
      vertex  5.627980e+000 -1.029015e+001 -1.674090e+001
    endloop
  endfacet
  facet normal  9.802320e-001  1.616550e-001 -1.140741e-001
    outer loop
      vertex  4.660063e+000 -4.967161e+000 -1.855297e+001
      vertex  4.252599e+000 -3.276377e+000 -1.965827e+001
      vertex  4.539157e+000 -2.739080e+000 -1.643448e+001
    endloop
  endfacet
  facet normal  9.850107e-001  1.438946e-001 -9.512217e-002
    outer loop
      vertex  4.660063e+000 -4.967161e+000 -1.855297e+001
      vertex  4.539157e+000 -2.739080e+000 -1.643448e+001
      vertex  4.872936e+000 -4.475917e+000 -1.560550e+001
    endloop
  endfacet
  facet normal  9.753878e-001  1.864111e-001 -1.177697e-001
    outer loop
      vertex  4.447191e+000 -5.458405e+000 -2.150043e+001
      vertex  3.966040e+000 -3.813675e+000 -2.288205e+001
      vertex  4.252599e+000 -3.276377e+000 -1.965827e+001
    endloop
  endfacet
  facet normal  9.697918e-001  2.260986e-001 -9.156038e-002
    outer loop
      vertex  5.417147e+000 -1.187140e+001 -2.622840e+001
      vertex  4.396162e+000 -8.561514e+000 -2.886908e+001
      vertex  4.600847e+000 -7.947459e+000 -2.518476e+001
    endloop
  endfacet
  facet normal  9.667028e-001  2.480695e-001 -6.282728e-002
    outer loop
      vertex  5.346869e+000 -1.239848e+001 -2.939091e+001
      vertex  4.396162e+000 -8.561514e+000 -2.886908e+001
      vertex  5.417147e+000 -1.187140e+001 -2.622840e+001
    endloop
  endfacet
  facet normal  9.630732e-001  2.507378e-001 -9.808548e-002
    outer loop
      vertex  4.396162e+000 -8.561514e+000 -2.886908e+001
      vertex  4.084956e+000 -8.807447e+000 -3.255341e+001
      vertex  3.392922e+000 -4.888271e+000 -2.932962e+001
    endloop
  endfacet
  facet normal  9.608349e-001  2.465638e-001 -1.265016e-001
    outer loop
      vertex  3.392922e+000 -4.888271e+000 -2.932962e+001
      vertex  3.679481e+000 -4.350973e+000 -2.610584e+001
      vertex  4.396162e+000 -8.561514e+000 -2.886908e+001
    endloop
  endfacet
  facet normal  9.700387e-001  2.250993e-001 -9.140753e-002
    outer loop
      vertex  4.396162e+000 -8.561514e+000 -2.886908e+001
      vertex  3.679481e+000 -4.350973e+000 -2.610584e+001
      vertex  4.600847e+000 -7.947459e+000 -2.518476e+001
    endloop
  endfacet
  facet normal  9.523671e-001  2.755804e-001 -1.305849e-001
    outer loop
      vertex  3.106364e+000 -5.425569e+000 -3.255341e+001
      vertex  3.392922e+000 -4.888271e+000 -2.932962e+001
      vertex  4.084956e+000 -8.807447e+000 -3.255341e+001
    endloop
  endfacet
  facet normal  9.753537e-001  2.023759e-001 -8.791576e-002
    outer loop
      vertex  5.092233e+000 -9.515432e+000 -2.334259e+001
      vertex  4.600847e+000 -7.947459e+000 -2.518476e+001
      vertex  4.703189e+000 -7.640432e+000 -2.334259e+001
    endloop
  endfacet
  facet normal  9.558542e-001  2.765896e-001 -9.920134e-002
    outer loop
      vertex  5.063550e+000 -1.218933e+001 -3.255341e+001
      vertex  4.084956e+000 -8.807447e+000 -3.255341e+001
      vertex  4.396162e+000 -8.561514e+000 -2.886908e+001
    endloop
  endfacet
  facet normal  9.659954e-001  2.488807e-001 -7.008042e-002
    outer loop
      vertex  5.063550e+000 -1.218933e+001 -3.255341e+001
      vertex  4.396162e+000 -8.561514e+000 -2.886908e+001
      vertex  5.346869e+000 -1.239848e+001 -2.939091e+001
    endloop
  endfacet
  facet normal  9.584005e-001  2.773257e-001 -6.751876e-002
    outer loop
      vertex  5.063550e+000 -1.218933e+001 -3.255341e+001
      vertex  5.346869e+000 -1.239848e+001 -2.939091e+001
      vertex  5.276591e+000 -1.292557e+001 -3.255341e+001
    endloop
  endfacet
  facet normal  9.910631e-001  8.554488e-002 -1.023519e-001
    outer loop
      vertex  5.112275e+000 -1.664484e+000 -9.986906e+000
      vertex  5.398834e+000 -1.127187e+000 -6.763120e+000
      vertex  5.298680e+000 -3.493430e+000 -9.710582e+000
    endloop
  endfacet
  facet normal  9.948512e-001  5.980706e-002 -8.181813e-002
    outer loop
      vertex  5.298680e+000 -3.493430e+000 -9.710582e+000
      vertex  5.398834e+000 -1.127187e+000 -6.763120e+000
      vertex  5.502743e+000 -3.022477e+000 -6.885070e+000
    endloop
  endfacet
  facet normal  9.926071e-001  8.567806e-002 -8.596821e-002
    outer loop
      vertex  5.298680e+000 -3.493430e+000 -9.710582e+000
      vertex  5.502743e+000 -3.022477e+000 -6.885070e+000
      vertex  5.460523e+000 -5.368430e+000 -9.710582e+000
    endloop
  endfacet
  facet normal  9.959896e-001  6.095508e-002 -6.549188e-002
    outer loop
      vertex  5.460523e+000 -5.368430e+000 -9.710582e+000
      vertex  5.502743e+000 -3.022477e+000 -6.885070e+000
      vertex  5.610693e+000 -4.917884e+000 -7.007496e+000
    endloop
  endfacet
  facet normal  9.938853e-001  8.578863e-002 -6.951420e-002
    outer loop
      vertex  5.460523e+000 -5.368430e+000 -9.710582e+000
      vertex  5.610693e+000 -4.917884e+000 -7.007496e+000
      vertex  5.622366e+000 -7.243430e+000 -9.710582e+000
    endloop
  endfacet
  facet normal  9.968611e-001  6.209349e-002 -4.911570e-002
    outer loop
      vertex  5.622366e+000 -7.243430e+000 -9.710582e+000
      vertex  5.610693e+000 -4.917884e+000 -7.007496e+000
      vertex  5.722710e+000 -6.813376e+000 -7.130301e+000
    endloop
  endfacet
  facet normal  9.942880e-001  9.205663e-002 -5.400958e-002
    outer loop
      vertex  5.622366e+000 -7.243430e+000 -9.710582e+000
      vertex  5.722710e+000 -6.813376e+000 -7.130301e+000
      vertex  5.768536e+000 -9.235982e+000 -1.041589e+001
    endloop
  endfacet
  facet normal  9.974636e-001  6.321973e-002 -3.270259e-002
    outer loop
      vertex  5.768536e+000 -9.235982e+000 -1.041589e+001
      vertex  5.722710e+000 -6.813376e+000 -7.130301e+000
      vertex  5.838814e+000 -8.708898e+000 -7.253386e+000
    endloop
  endfacet
  facet normal  9.880928e-001  1.111762e-001 -1.063599e-001
    outer loop
      vertex  4.825716e+000 -2.201782e+000 -1.321069e+001
      vertex  5.112275e+000 -1.664484e+000 -9.986906e+000
      vertex  5.085808e+000 -3.984674e+000 -1.265804e+001
    endloop
  endfacet
  facet normal  9.923621e-001  8.809445e-002 -8.635308e-002
    outer loop
      vertex  5.085808e+000 -3.984674e+000 -1.265804e+001
      vertex  5.112275e+000 -1.664484e+000 -9.986906e+000
      vertex  5.298680e+000 -3.493430e+000 -9.710582e+000
    endloop
  endfacet
  facet normal  9.896934e-001  1.113564e-001 -9.003733e-002
    outer loop
      vertex  5.085808e+000 -3.984674e+000 -1.265804e+001
      vertex  5.298680e+000 -3.493430e+000 -9.710582e+000
      vertex  5.296775e+000 -5.859674e+000 -1.265804e+001
    endloop
  endfacet
  facet normal  9.938854e-001  8.578840e-002 -6.951389e-002
    outer loop
      vertex  5.296775e+000 -5.859674e+000 -1.265804e+001
      vertex  5.298680e+000 -3.493430e+000 -9.710582e+000
      vertex  5.460523e+000 -5.368430e+000 -9.710582e+000
    endloop
  endfacet
  facet normal  9.910313e-001  1.115069e-001 -7.364175e-002
    outer loop
      vertex  5.296775e+000 -5.859674e+000 -1.265804e+001
      vertex  5.460523e+000 -5.368430e+000 -9.710582e+000
      vertex  5.507743e+000 -7.734674e+000 -1.265804e+001
    endloop
  endfacet
  facet normal  9.948950e-001  8.587579e-002 -5.300301e-002
    outer loop
      vertex  5.507743e+000 -7.734674e+000 -1.265804e+001
      vertex  5.460523e+000 -5.368430e+000 -9.710582e+000
      vertex  5.622366e+000 -7.243430e+000 -9.710582e+000
    endloop
  endfacet
  facet normal  9.942880e-001  9.205661e-002 -5.400954e-002
    outer loop
      vertex  5.507743e+000 -7.734674e+000 -1.265804e+001
      vertex  5.622366e+000 -7.243430e+000 -9.710582e+000
      vertex  5.768536e+000 -9.235982e+000 -1.041589e+001
    endloop
  endfacet
  facet normal  9.742039e-001  2.180897e-001 -5.799723e-002
    outer loop
      vertex  5.417147e+000 -1.187140e+001 -2.622840e+001
      vertex  4.600847e+000 -7.947459e+000 -2.518476e+001
      vertex  5.487424e+000 -1.134432e+001 -2.306590e+001
    endloop
  endfacet
  facet normal  9.760300e-001  1.968665e-001 -9.278552e-002
    outer loop
      vertex  5.487424e+000 -1.134432e+001 -2.306590e+001
      vertex  4.600847e+000 -7.947459e+000 -2.518476e+001
      vertex  5.092233e+000 -9.515432e+000 -2.334259e+001
    endloop
  endfacet
  facet normal  9.776340e-001  2.028489e-001 -5.553329e-002
    outer loop
      vertex  5.487424e+000 -1.134432e+001 -2.306590e+001
      vertex  5.092233e+000 -9.515432e+000 -2.334259e+001
      vertex  5.557702e+000 -1.081723e+001 -1.990340e+001
    endloop
  endfacet
  facet normal  9.824834e-001  1.738199e-001 -6.717767e-002
    outer loop
      vertex  5.557702e+000 -1.081723e+001 -1.990340e+001
      vertex  5.092233e+000 -9.515432e+000 -2.334259e+001
      vertex  5.163872e+000 -9.208405e+000 -2.150043e+001
    endloop
  endfacet
  facet normal  9.824834e-001  1.738200e-001 -6.717768e-002
    outer loop
      vertex  5.557702e+000 -1.081723e+001 -1.990340e+001
      vertex  5.163872e+000 -9.208405e+000 -2.150043e+001
      vertex  5.278496e+000 -8.717161e+000 -1.855297e+001
    endloop
  endfacet
  facet normal  9.685296e-001  2.168193e-001 -1.222281e-001
    outer loop
      vertex  3.679481e+000 -4.350973e+000 -2.610584e+001
      vertex  3.966040e+000 -3.813675e+000 -2.288205e+001
      vertex  4.600847e+000 -7.947459e+000 -2.518476e+001
    endloop
  endfacet
  facet normal  9.784184e-001  1.923307e-001 -7.554038e-002
    outer loop
      vertex  4.600847e+000 -7.947459e+000 -2.518476e+001
      vertex  3.966040e+000 -3.813675e+000 -2.288205e+001
      vertex  4.314146e+000 -5.765432e+000 -2.334259e+001
    endloop
  endfacet
  facet normal  9.753538e-001  2.023759e-001 -8.791577e-002
    outer loop
      vertex  4.600847e+000 -7.947459e+000 -2.518476e+001
      vertex  4.314146e+000 -5.765432e+000 -2.334259e+001
      vertex  4.703189e+000 -7.640432e+000 -2.334259e+001
    endloop
  endfacet
  facet normal  9.861281e-001  1.367914e-001 -9.401885e-002
    outer loop
      vertex  4.872936e+000 -4.475917e+000 -1.560550e+001
      vertex  5.085808e+000 -3.984674e+000 -1.265804e+001
      vertex  5.133028e+000 -6.350917e+000 -1.560550e+001
    endloop
  endfacet
  facet normal  9.910313e-001  1.115069e-001 -7.364175e-002
    outer loop
      vertex  5.133028e+000 -6.350917e+000 -1.560550e+001
      vertex  5.085808e+000 -3.984674e+000 -1.265804e+001
      vertex  5.296775e+000 -5.859674e+000 -1.265804e+001
    endloop
  endfacet
  facet normal  9.875216e-001  1.369846e-001 -7.769306e-002
    outer loop
      vertex  5.133028e+000 -6.350917e+000 -1.560550e+001
      vertex  5.296775e+000 -5.859674e+000 -1.265804e+001
      vertex  5.393119e+000 -8.225918e+000 -1.560550e+001
    endloop
  endfacet
  facet normal  9.921033e-001  1.116275e-001 -5.718641e-002
    outer loop
      vertex  5.393119e+000 -8.225918e+000 -1.560550e+001
      vertex  5.296775e+000 -5.859674e+000 -1.265804e+001
      vertex  5.507743e+000 -7.734674e+000 -1.265804e+001
    endloop
  endfacet
  facet normal  9.910957e-001  1.196220e-001 -5.847965e-002
    outer loop
      vertex  5.393119e+000 -8.225918e+000 -1.560550e+001
      vertex  5.507743e+000 -7.734674e+000 -1.265804e+001
      vertex  5.698258e+000 -9.763065e+000 -1.357839e+001
    endloop
  endfacet
  facet normal  9.819323e-001  1.619358e-001 -9.790673e-002
    outer loop
      vertex  4.660063e+000 -4.967161e+000 -1.855297e+001
      vertex  4.872936e+000 -4.475917e+000 -1.560550e+001
      vertex  4.969280e+000 -6.842161e+000 -1.855297e+001
    endloop
  endfacet
  facet normal  9.875216e-001  1.369847e-001 -7.769307e-002
    outer loop
      vertex  4.969280e+000 -6.842161e+000 -1.855297e+001
      vertex  4.872936e+000 -4.475917e+000 -1.560550e+001
      vertex  5.133028e+000 -6.350917e+000 -1.560550e+001
    endloop
  endfacet
  facet normal  9.833774e-001  1.621739e-001 -8.166104e-002
    outer loop
      vertex  4.969280e+000 -6.842161e+000 -1.855297e+001
      vertex  5.133028e+000 -6.350917e+000 -1.560550e+001
      vertex  5.278496e+000 -8.717161e+000 -1.855297e+001
    endloop
  endfacet
  facet normal  9.886526e-001  1.371415e-001 -6.130452e-002
    outer loop
      vertex  5.278496e+000 -8.717161e+000 -1.855297e+001
      vertex  5.133028e+000 -6.350917e+000 -1.560550e+001
      vertex  5.393119e+000 -8.225918e+000 -1.560550e+001
    endloop
  endfacet
  facet normal  9.871518e-001  1.468961e-001 -6.287191e-002
    outer loop
      vertex  5.278496e+000 -8.717161e+000 -1.855297e+001
      vertex  5.393119e+000 -8.225918e+000 -1.560550e+001
      vertex  5.627980e+000 -1.029015e+001 -1.674090e+001
    endloop
  endfacet
  facet normal  9.845636e-001  1.623695e-001 -6.535016e-002
    outer loop
      vertex  5.278496e+000 -8.717161e+000 -1.855297e+001
      vertex  5.163872e+000 -9.208405e+000 -2.150043e+001
      vertex  4.969280e+000 -6.842161e+000 -1.855297e+001
    endloop
  endfacet
  facet normal  9.786229e-001  1.870296e-001 -8.553968e-002
    outer loop
      vertex  4.969280e+000 -6.842161e+000 -1.855297e+001
      vertex  5.163872e+000 -9.208405e+000 -2.150043e+001
      vertex  4.805532e+000 -7.333405e+000 -2.150043e+001
    endloop
  endfacet
  facet normal  9.833773e-001  1.621741e-001 -8.166123e-002
    outer loop
      vertex  4.969280e+000 -6.842161e+000 -1.855297e+001
      vertex  4.805532e+000 -7.333405e+000 -2.150043e+001
      vertex  4.660063e+000 -4.967161e+000 -1.855297e+001
    endloop
  endfacet
  facet normal  9.771309e-001  1.867442e-001 -1.016945e-001
    outer loop
      vertex  4.660063e+000 -4.967161e+000 -1.855297e+001
      vertex  4.805532e+000 -7.333405e+000 -2.150043e+001
      vertex  4.447191e+000 -5.458405e+000 -2.150043e+001
    endloop
  endfacet
  facet normal  9.802014e-001  1.712804e-001 -9.933899e-002
    outer loop
      vertex  4.660063e+000 -4.967161e+000 -1.855297e+001
      vertex  4.447191e+000 -5.458405e+000 -2.150043e+001
      vertex  4.252599e+000 -3.276377e+000 -1.965827e+001
    endloop
  endfacet
  facet normal  9.798604e-001  1.872661e-001 -6.931670e-002
    outer loop
      vertex  5.163872e+000 -9.208405e+000 -2.150043e+001
      vertex  5.092233e+000 -9.515432e+000 -2.334259e+001
      vertex  4.805532e+000 -7.333405e+000 -2.150043e+001
    endloop
  endfacet
  facet normal  9.753537e-001  2.023759e-001 -8.791546e-002
    outer loop
      vertex  4.805532e+000 -7.333405e+000 -2.150043e+001
      vertex  5.092233e+000 -9.515432e+000 -2.334259e+001
      vertex  4.703189e+000 -7.640432e+000 -2.334259e+001
    endloop
  endfacet
  facet normal  9.786230e-001  1.870293e-001 -8.553933e-002
    outer loop
      vertex  4.805532e+000 -7.333405e+000 -2.150043e+001
      vertex  4.703189e+000 -7.640432e+000 -2.334259e+001
      vertex  4.447191e+000 -5.458405e+000 -2.150043e+001
    endloop
  endfacet
  facet normal  9.738345e-001  2.020607e-001 -1.040093e-001
    outer loop
      vertex  4.447191e+000 -5.458405e+000 -2.150043e+001
      vertex  4.703189e+000 -7.640432e+000 -2.334259e+001
      vertex  4.314146e+000 -5.765432e+000 -2.334259e+001
    endloop
  endfacet
  facet normal  9.746794e-001  1.982459e-001 -1.034345e-001
    outer loop
      vertex  4.447191e+000 -5.458405e+000 -2.150043e+001
      vertex  4.314146e+000 -5.765432e+000 -2.334259e+001
      vertex  3.966040e+000 -3.813675e+000 -2.288205e+001
    endloop
  endfacet
  facet normal  0.000000e+000  0.000000e+000 -1.000000e+000
    outer loop
      vertex  4.084956e+000 -8.807447e+000 -3.255341e+001
      vertex -3.106364e+000 -5.425569e+000 -3.255341e+001
      vertex  3.106364e+000 -5.425569e+000 -3.255341e+001
    endloop
  endfacet
  facet normal  0.000000e+000  0.000000e+000 -1.000000e+000
    outer loop
      vertex -3.106364e+000 -5.425569e+000 -3.255341e+001
      vertex  4.084956e+000 -8.807447e+000 -3.255341e+001
      vertex -4.084956e+000 -8.807447e+000 -3.255341e+001
    endloop
  endfacet
  facet normal  0.000000e+000  0.000000e+000 -1.000000e+000
    outer loop
      vertex -4.084956e+000 -8.807447e+000 -3.255341e+001
      vertex  4.084956e+000 -8.807447e+000 -3.255341e+001
      vertex  5.063550e+000 -1.218933e+001 -3.255341e+001
    endloop
  endfacet
  facet normal  0.000000e+000  0.000000e+000 -1.000000e+000
    outer loop
      vertex -4.084956e+000 -8.807447e+000 -3.255341e+001
      vertex  5.063550e+000 -1.218933e+001 -3.255341e+001
      vertex -5.063550e+000 -1.218933e+001 -3.255341e+001
    endloop
  endfacet
  facet normal  0.000000e+000  0.000000e+000 -1.000000e+000
    outer loop
      vertex -5.063550e+000 -1.218933e+001 -3.255341e+001
      vertex  5.063550e+000 -1.218933e+001 -3.255341e+001
      vertex  5.276591e+000 -1.292557e+001 -3.255341e+001
    endloop
  endfacet
  facet normal  0.000000e+000  0.000000e+000 -9.999999e-001
    outer loop
      vertex -5.063550e+000 -1.218933e+001 -3.255341e+001
      vertex  5.276591e+000 -1.292557e+001 -3.255341e+001
      vertex -5.276591e+000 -1.292557e+001 -3.255341e+001
    endloop
  endfacet
  facet normal -9.851675e-015 -3.291164e-014  9.999999e-001
    outer loop
      vertex -1.327250e+001 -7.500000e+000 -2.560729e-013
      vertex  1.327253e+001 -7.500000e+000  5.440093e-015
      vertex -1.280835e+001  1.942890e-016 -4.662937e-015
    endloop
  endfacet
  facet normal -2.643726e-016  4.277280e-016  1.000000e+000
    outer loop
      vertex -1.280835e+001  1.942890e-016 -4.662937e-015
      vertex  1.327253e+001 -7.500000e+000  5.440093e-015
      vertex  1.280838e+001  1.221245e-015  2.109424e-015
    endloop
  endfacet
  facet normal -4.861751e-001  3.108331e-002 -8.733084e-001
    outer loop
      vertex -9.084491e+000 -1.652743e-001 -9.916456e-001
      vertex -9.322744e+000 -7.687792e+000 -1.126755e+000
      vertex -9.928164e+000 -7.631284e+000 -7.877029e-001
    endloop
  endfacet
  facet normal -5.341064e-001  3.208951e-002 -8.448081e-001
    outer loop
      vertex -9.322744e+000 -7.687792e+000 -1.126755e+000
      vertex -9.084491e+000 -1.652743e-001 -9.916456e-001
      vertex -8.523115e+000 -2.248035e-001 -1.348821e+000
    endloop
  endfacet
  facet normal -5.648487e-001  3.599040e-002 -8.244093e-001
    outer loop
      vertex -8.523115e+000 -2.248035e-001 -1.348821e+000
      vertex -8.752542e+000 -7.753383e+000 -1.520295e+000
      vertex -9.322744e+000 -7.687792e+000 -1.126755e+000
    endloop
  endfacet
  facet normal -6.069115e-001  3.657796e-002 -7.939273e-001
    outer loop
      vertex -8.752542e+000 -7.753383e+000 -1.520295e+000
      vertex -8.523115e+000 -2.248035e-001 -1.348821e+000
      vertex -7.996876e+000 -2.923689e-001 -1.754213e+000
    endloop
  endfacet
  facet normal -6.385756e-001  4.058252e-002 -7.684884e-001
    outer loop
      vertex -7.996876e+000 -2.923689e-001 -1.754213e+000
      vertex -8.222580e+000 -7.827430e+000 -1.964578e+000
      vertex -8.752542e+000 -7.753383e+000 -1.520295e+000
    endloop
  endfacet
  facet normal -6.748231e-001  4.078504e-002 -7.368516e-001
    outer loop
      vertex -8.222580e+000 -7.827430e+000 -1.964578e+000
      vertex -7.996876e+000 -2.923689e-001 -1.754213e+000
      vertex -7.509968e+000 -3.673808e-001 -2.204285e+000
    endloop
  endfacet
  facet normal -7.067212e-001  4.482111e-002 -7.060710e-001
    outer loop
      vertex -7.509968e+000 -3.673808e-001 -2.204285e+000
      vertex -7.737412e+000 -7.909231e+000 -2.455385e+000
      vertex -8.222580e+000 -7.827430e+000 -1.964578e+000
    endloop
  endfacet
  facet normal -9.884036e-001  6.307703e-002 -1.381290e-001
    outer loop
      vertex -5.474867e+000 -1.029039e+000 -6.174236e+000
      vertex -5.398833e+000 -1.127189e+000 -6.763133e+000
      vertex -5.502746e+000 -3.022561e+000 -6.885093e+000
    endloop
  endfacet
  facet normal -9.872134e-001  6.560901e-002 -1.452764e-001
    outer loop
      vertex -5.474867e+000 -1.029039e+000 -6.174236e+000
      vertex -5.502746e+000 -3.022561e+000 -6.885093e+000
      vertex -5.610694e+000 -4.917935e+000 -7.007519e+000
    endloop
  endfacet
  facet normal -9.848592e-001  6.851889e-002 -1.592404e-001
    outer loop
      vertex -5.474867e+000 -1.029039e+000 -6.174236e+000
      vertex -5.610694e+000 -4.917935e+000 -7.007519e+000
      vertex -5.722708e+000 -6.813365e+000 -7.130320e+000
    endloop
  endfacet
  facet normal -9.810587e-001  7.177466e-002 -1.799231e-001
    outer loop
      vertex -5.474867e+000 -1.029039e+000 -6.174236e+000
      vertex -5.722708e+000 -6.813365e+000 -7.130320e+000
      vertex -5.838813e+000 -8.708900e+000 -7.253403e+000
    endloop
  endfacet
  facet normal -9.956615e-001  5.746752e-002 -7.318192e-002
    outer loop
      vertex -5.474867e+000 -1.029039e+000 -6.174236e+000
      vertex -5.838813e+000 -8.708900e+000 -7.253403e+000
      vertex -5.878442e+000 -8.605510e+000 -6.633056e+000
    endloop
  endfacet
  facet normal -9.871765e-001  6.150454e-002 -1.473084e-001
    outer loop
      vertex -5.474867e+000 -1.029039e+000 -6.174236e+000
      vertex -5.878442e+000 -8.605510e+000 -6.633056e+000
      vertex -5.944990e+000 -8.525622e+000 -6.153736e+000
    endloop
  endfacet
  facet normal -9.755113e-001  6.059763e-002 -2.114373e-001
    outer loop
      vertex -5.474867e+000 -1.029039e+000 -6.174236e+000
      vertex -5.944990e+000 -8.525622e+000 -6.153736e+000
      vertex -5.580871e+000 -9.434386e-001 -5.660632e+000
    endloop
  endfacet
  facet normal -4.569882e-001  2.735507e-002 -8.890520e-001
    outer loop
      vertex -9.084491e+000 -1.652743e-001 -9.916456e-001
      vertex -9.928164e+000 -7.631284e+000 -7.877029e-001
      vertex -9.676433e+000 -1.143015e-001 -6.858088e-001
    endloop
  endfacet
  facet normal -4.033916e-001  2.590733e-002 -9.146606e-001
    outer loop
      vertex -9.676433e+000 -1.143015e-001 -6.858088e-001
      vertex -9.928164e+000 -7.631284e+000 -7.877029e-001
      vertex -1.056139e+001 -7.584518e+000 -5.071093e-001
    endloop
  endfacet
  facet normal -3.775108e-001  2.257659e-002 -9.257300e-001
    outer loop
      vertex -9.676433e+000 -1.143015e-001 -6.858088e-001
      vertex -1.056139e+001 -7.584518e+000 -5.071093e-001
      vertex -1.027389e+001 -7.352854e-002 -4.411712e-001
    endloop
  endfacet
  facet normal -3.172680e-001  2.046724e-002 -9.481149e-001
    outer loop
      vertex -1.027389e+001 -7.352854e-002 -4.411712e-001
      vertex -1.056139e+001 -7.584518e+000 -5.071093e-001
      vertex -1.121848e+001 -7.547739e+000 -2.864308e-001
    endloop
  endfacet
  facet normal -2.964813e-001  1.770027e-002 -9.548746e-001
    outer loop
      vertex -1.027389e+001 -7.352854e-002 -4.411712e-001
      vertex -1.121848e+001 -7.547739e+000 -2.864308e-001
      vertex -1.089072e+001 -4.150940e-002 -2.490564e-001
    endloop
  endfacet
  facet normal -2.284673e-001  1.482288e-002 -9.734387e-001
    outer loop
      vertex -1.089072e+001 -4.150940e-002 -2.490564e-001
      vertex -1.121848e+001 -7.547739e+000 -2.864308e-001
      vertex -1.189347e+001 -7.521268e+000 -1.276068e-001
    endloop
  endfacet
  facet normal -2.132739e-001  1.272967e-002 -9.769095e-001
    outer loop
      vertex -1.089072e+001 -4.150940e-002 -2.490564e-001
      vertex -1.189347e+001 -7.521268e+000 -1.276068e-001
      vertex -1.152206e+001 -1.848758e-002 -1.109255e-001
    endloop
  endfacet
  facet normal -1.377868e-001  9.022887e-003 -9.904209e-001
    outer loop
      vertex -1.152206e+001 -1.848758e-002 -1.109255e-001
      vertex -1.189347e+001 -7.521268e+000 -1.276068e-001
      vertex -1.258021e+001 -7.505321e+000 -3.192236e-002
    endloop
  endfacet
  facet normal -1.285383e-001  7.702521e-003 -9.916746e-001
    outer loop
      vertex -1.152206e+001 -1.848758e-002 -1.109255e-001
      vertex -1.258021e+001 -7.505321e+000 -3.192236e-002
      vertex -1.216294e+001 -4.624769e-003 -2.774861e-002
    endloop
  endfacet
  facet normal -4.603848e-002  3.117019e-003 -9.989348e-001
    outer loop
      vertex -1.216294e+001 -4.624769e-003 -2.774861e-002
      vertex -1.258021e+001 -7.505321e+000 -3.192236e-002
      vertex -1.327250e+001 -7.500000e+000 -2.560729e-013
    endloop
  endfacet
  facet normal -4.293547e-002  2.657157e-003 -9.990743e-001
    outer loop
      vertex -1.216294e+001 -4.624769e-003 -2.774861e-002
      vertex -1.327250e+001 -7.500000e+000 -2.560729e-013
      vertex -1.280835e+001  1.942890e-016 -4.662937e-015
    endloop
  endfacet
  facet normal -7.943487e-001  4.821959e-002 -6.055452e-001
    outer loop
      vertex -6.662596e+000 -5.386111e-001 -3.231666e+000
      vertex -7.301075e+000 -7.998018e+000 -2.988108e+000
      vertex -7.066170e+000 -4.491902e-001 -2.695141e+000
    endloop
  endfacet
  facet normal -7.687122e-001  4.867130e-002 -6.377402e-001
    outer loop
      vertex -7.066170e+000 -4.491902e-001 -2.695141e+000
      vertex -7.301075e+000 -7.998018e+000 -2.988108e+000
      vertex -7.737412e+000 -7.909231e+000 -2.455385e+000
    endloop
  endfacet
  facet normal -7.373124e-001  4.467831e-002 -6.740728e-001
    outer loop
      vertex -7.066170e+000 -4.491902e-001 -2.695141e+000
      vertex -7.737412e+000 -7.909231e+000 -2.455385e+000
      vertex -7.509968e+000 -3.673808e-001 -2.204285e+000
    endloop
  endfacet
  facet normal -8.244330e-001  5.216581e-002 -5.635503e-001
    outer loop
      vertex -7.301075e+000 -7.998018e+000 -2.988108e+000
      vertex -6.662596e+000 -5.386111e-001 -3.231666e+000
      vertex -6.911504e+000 -8.094492e+000 -3.566952e+000
    endloop
  endfacet
  facet normal -8.453430e-001  5.144313e-002 -5.317412e-001
    outer loop
      vertex -6.911504e+000 -8.094492e+000 -3.566952e+000
      vertex -6.662596e+000 -5.386111e-001 -3.231666e+000
      vertex -6.310009e+000 -6.335639e-001 -3.801384e+000
    endloop
  endfacet
  facet normal -8.732883e-001  5.519403e-002 -4.840674e-001
    outer loop
      vertex -6.911504e+000 -8.094492e+000 -3.566952e+000
      vertex -6.310009e+000 -6.335639e-001 -3.801384e+000
      vertex -6.578922e+000 -8.196429e+000 -4.178575e+000
    endloop
  endfacet
  facet normal -8.894290e-001  5.426044e-002 -4.538411e-001
    outer loop
      vertex -6.578922e+000 -8.196429e+000 -4.178575e+000
      vertex -6.310009e+000 -6.335639e-001 -3.801384e+000
      vertex -6.010919e+000 -7.332418e-001 -4.399451e+000
    endloop
  endfacet
  facet normal -9.144378e-001  5.773988e-002 -4.005866e-001
    outer loop
      vertex -6.578922e+000 -8.196429e+000 -4.178575e+000
      vertex -6.010919e+000 -7.332418e-001 -4.399451e+000
      vertex -6.305800e+000 -8.302898e+000 -4.817390e+000
    endloop
  endfacet
  facet normal -9.263042e-001  5.665103e-002 -3.724930e-001
    outer loop
      vertex -6.305800e+000 -8.302898e+000 -4.817390e+000
      vertex -6.010919e+000 -7.332418e-001 -4.399451e+000
      vertex -5.767357e+000 -8.368141e-001 -5.020885e+000
    endloop
  endfacet
  facet normal -9.475863e-001  5.978405e-002 -3.138566e-001
    outer loop
      vertex -6.305800e+000 -8.302898e+000 -4.817390e+000
      vertex -5.767357e+000 -8.368141e-001 -5.020885e+000
      vertex -6.094040e+000 -8.412949e+000 -5.477692e+000
    endloop
  endfacet
  facet normal -9.557271e-001  5.859778e-002 -2.883607e-001
    outer loop
      vertex -6.094040e+000 -8.412949e+000 -5.477692e+000
      vertex -5.767357e+000 -8.368141e-001 -5.020885e+000
      vertex -5.580871e+000 -9.434386e-001 -5.660632e+000
    endloop
  endfacet
  facet normal -9.725128e-001  6.131179e-002 -2.246327e-001
    outer loop
      vertex -6.094040e+000 -8.412949e+000 -5.477692e+000
      vertex -5.580871e+000 -9.434386e-001 -5.660632e+000
      vertex -5.944990e+000 -8.525622e+000 -6.153736e+000
    endloop
  endfacet
  facet normal  1.377716e-001  9.586609e-003 -9.904177e-001
    outer loop
      vertex  1.189350e+001 -7.521267e+000 -1.276044e-001
      vertex  1.179155e+001 -1.151626e-002 -6.909759e-002
      vertex  1.258025e+001 -7.505320e+000 -3.192127e-002
    endloop
  endfacet
  facet normal  1.788557e-001  1.009302e-002 -9.838235e-001
    outer loop
      vertex  1.113833e+001 -3.134212e-002 -1.880527e-001
      vertex  1.179155e+001 -1.151626e-002 -6.909759e-002
      vertex  1.189350e+001 -7.521267e+000 -1.276044e-001
    endloop
  endfacet
  facet normal  2.284510e-001  1.517728e-002 -9.734371e-001
    outer loop
      vertex  1.121852e+001 -7.547738e+000 -2.864268e-001
      vertex  1.113833e+001 -3.134212e-002 -1.880527e-001
      vertex  1.189350e+001 -7.521267e+000 -1.276044e-001
    endloop
  endfacet
  facet normal  2.650428e-001  1.544559e-002 -9.641129e-001
    outer loop
      vertex  1.049838e+001 -6.074229e-002 -3.644538e-001
      vertex  1.113833e+001 -3.134212e-002 -1.880527e-001
      vertex  1.121852e+001 -7.547738e+000 -2.864268e-001
    endloop
  endfacet
  facet normal  3.172567e-001  2.063452e-002 -9.481152e-001
    outer loop
      vertex  1.056142e+001 -7.584517e+000 -5.071033e-001
      vertex  1.049838e+001 -6.074229e-002 -3.644538e-001
      vertex  1.121852e+001 -7.547738e+000 -2.864268e-001
    endloop
  endfacet
  facet normal  3.491744e-001  2.068799e-002 -9.368294e-001
    outer loop
      vertex  9.876992e+000 -9.948517e-002 -5.969110e-001
      vertex  1.049838e+001 -6.074229e-002 -3.644538e-001
      vertex  1.056142e+001 -7.584517e+000 -5.071033e-001
    endloop
  endfacet
  facet normal  4.033893e-001  2.591135e-002 -9.146615e-001
    outer loop
      vertex  9.928201e+000 -7.631282e+000 -7.876943e-001
      vertex  9.876992e+000 -9.948517e-002 -5.969110e-001
      vertex  1.056142e+001 -7.584517e+000 -5.071033e-001
    endloop
  endfacet
  facet normal  4.305580e-001  2.578028e-002 -9.021946e-001
    outer loop
      vertex  9.279336e+000 -1.472496e-001 -8.834978e-001
      vertex  9.876992e+000 -9.948517e-002 -5.969110e-001
      vertex  9.928201e+000 -7.631282e+000 -7.876943e-001
    endloop
  endfacet
  facet normal  4.861822e-001  3.097267e-002 -8.733085e-001
    outer loop
      vertex  9.322782e+000 -7.687790e+000 -1.126743e+000
      vertex  9.279336e+000 -1.472496e-001 -8.834978e-001
      vertex  9.928201e+000 -7.631282e+000 -7.876943e-001
    endloop
  endfacet
  facet normal  5.085272e-001  3.068819e-002 -8.604989e-001
    outer loop
      vertex  8.710321e+000 -2.036296e-001 -1.221778e+000
      vertex  9.279336e+000 -1.472496e-001 -8.834978e-001
      vertex  9.322782e+000 -7.687790e+000 -1.126743e+000
    endloop
  endfacet
  facet normal  5.648692e-001  3.575722e-002 -8.244053e-001
    outer loop
      vertex  8.752580e+000 -7.753380e+000 -1.520281e+000
      vertex  8.710321e+000 -2.036296e-001 -1.221778e+000
      vertex  9.322782e+000 -7.687790e+000 -1.126743e+000
    endloop
  endfacet
  facet normal  5.828187e-001  3.536058e-002 -8.118324e-001
    outer loop
      vertex  8.169165e+000 -2.688530e-001 -1.613118e+000
      vertex  8.710321e+000 -2.036296e-001 -1.221778e+000
      vertex  8.752580e+000 -7.753380e+000 -1.520281e+000
    endloop
  endfacet
  facet normal  6.386099e-001  4.024724e-002 -7.684774e-001
    outer loop
      vertex  8.222616e+000 -7.827427e+000 -1.964562e+000
      vertex  8.169165e+000 -2.688530e-001 -1.613118e+000
      vertex  8.752580e+000 -7.753380e+000 -1.520281e+000
    endloop
  endfacet
  facet normal  6.527563e-001  3.979141e-002 -7.565222e-001
    outer loop
      vertex  7.666336e+000 -3.418024e-001 -2.050815e+000
      vertex  8.169165e+000 -2.688530e-001 -1.613118e+000
      vertex  8.222616e+000 -7.827427e+000 -1.964562e+000
    endloop
  endfacet
  facet normal  7.067694e-001  4.438686e-002 -7.060502e-001
    outer loop
      vertex  7.737446e+000 -7.909228e+000 -2.455369e+000
      vertex  7.666336e+000 -3.418024e-001 -2.050815e+000
      vertex  8.222616e+000 -7.827427e+000 -1.964562e+000
    endloop
  endfacet
  facet normal  7.173844e-001  4.391149e-002 -6.952924e-001
    outer loop
      vertex  7.205808e+000 -4.218383e-001 -2.531030e+000
      vertex  7.666336e+000 -3.418024e-001 -2.050815e+000
      vertex  7.737446e+000 -7.909228e+000 -2.455369e+000
    endloop
  endfacet
  facet normal  7.687743e-001  4.814232e-002 -6.377057e-001
    outer loop
      vertex  7.301106e+000 -7.998016e+000 -2.988094e+000
      vertex  7.205808e+000 -4.218383e-001 -2.531030e+000
      vertex  7.737446e+000 -7.909228e+000 -2.455369e+000
    endloop
  endfacet
  facet normal  7.762046e-001  4.769095e-002 -6.286747e-001
    outer loop
      vertex  6.791111e+000 -5.082665e-001 -3.049599e+000
      vertex  7.205808e+000 -4.218383e-001 -2.531030e+000
      vertex  7.301106e+000 -7.998016e+000 -2.988094e+000
    endloop
  endfacet
  facet normal  8.245108e-001  5.151547e-002 -5.634963e-001
    outer loop
      vertex  6.911536e+000 -8.094489e+000 -3.566935e+000
      vertex  6.791111e+000 -5.082665e-001 -3.049599e+000
      vertex  7.301106e+000 -7.998016e+000 -2.988094e+000
    endloop
  endfacet
  facet normal  8.287742e-001  5.115650e-002 -5.572400e-001
    outer loop
      vertex  6.425312e+000 -6.003501e-001 -3.602101e+000
      vertex  6.791111e+000 -5.082665e-001 -3.049599e+000
      vertex  6.911536e+000 -8.094489e+000 -3.566935e+000
    endloop
  endfacet
  facet normal  8.733826e-001  5.439446e-002 -4.839878e-001
    outer loop
      vertex  6.578953e+000 -8.196425e+000 -4.178555e+000
      vertex  6.425312e+000 -6.003501e-001 -3.602101e+000
      vertex  6.911536e+000 -8.094489e+000 -3.566935e+000
    endloop
  endfacet
  facet normal  8.750777e-001  5.419733e-002 -4.809383e-001
    outer loop
      vertex  6.106168e+000 -6.989843e-001 -4.193905e+000
      vertex  6.425312e+000 -6.003501e-001 -3.602101e+000
      vertex  6.578953e+000 -8.196425e+000 -4.178555e+000
    endloop
  endfacet
  facet normal  9.145386e-001  5.685043e-002 -4.004836e-001
    outer loop
      vertex  6.305829e+000 -8.302896e+000 -4.817372e+000
      vertex  6.106168e+000 -6.989843e-001 -4.193905e+000
      vertex  6.578953e+000 -8.196425e+000 -4.178555e+000
    endloop
  endfacet
  facet normal  9.146149e-001  5.683830e-002 -4.003113e-001
    outer loop
      vertex  5.842456e+000 -8.018376e-001 -4.811026e+000
      vertex  6.106168e+000 -6.989843e-001 -4.193905e+000
      vertex  6.305829e+000 -8.302896e+000 -4.817372e+000
    endloop
  endfacet
  facet normal  9.476898e-001  5.880823e-002 -3.137285e-001
    outer loop
      vertex  6.094067e+000 -8.412946e+000 -5.477677e+000
      vertex  5.842456e+000 -8.018376e-001 -4.811026e+000
      vertex  6.305829e+000 -8.302896e+000 -4.817372e+000
    endloop
  endfacet
  facet normal  9.467033e-001  5.903162e-002 -3.166512e-001
    outer loop
      vertex  5.635903e+000 -9.080613e-001 -5.448368e+000
      vertex  5.842456e+000 -8.018376e-001 -4.811026e+000
      vertex  6.094067e+000 -8.412946e+000 -5.477677e+000
    endloop
  endfacet
  facet normal  9.726142e-001  6.025348e-002 -2.244797e-001
    outer loop
      vertex  5.945014e+000 -8.525621e+000 -6.153726e+000
      vertex  5.635903e+000 -9.080613e-001 -5.448368e+000
      vertex  6.094067e+000 -8.412946e+000 -5.477677e+000
    endloop
  endfacet
  facet normal  9.711401e-001  6.076405e-002 -2.306397e-001
    outer loop
      vertex  5.487762e+000 -1.016797e+000 -6.100785e+000
      vertex  5.635903e+000 -9.080613e-001 -5.448368e+000
      vertex  5.945014e+000 -8.525621e+000 -6.153726e+000
    endloop
  endfacet
  facet normal  9.953993e-001  6.550999e-002 -6.992015e-002
    outer loop
      vertex  5.871509e+000 -8.616967e+000 -6.701803e+000
      vertex  5.838814e+000 -8.708898e+000 -7.253386e+000
      vertex  5.722710e+000 -6.813376e+000 -7.130301e+000
    endloop
  endfacet
  facet normal  9.949872e-001  6.379031e-002 -7.701540e-002
    outer loop
      vertex  5.871509e+000 -8.616967e+000 -6.701803e+000
      vertex  5.722710e+000 -6.813376e+000 -7.130301e+000
      vertex  5.610693e+000 -4.917884e+000 -7.007496e+000
    endloop
  endfacet
  facet normal  9.938411e-001  6.251256e-002 -9.149919e-002
    outer loop
      vertex  5.871509e+000 -8.616967e+000 -6.701803e+000
      vertex  5.610693e+000 -4.917884e+000 -7.007496e+000
      vertex  5.502743e+000 -3.022477e+000 -6.885070e+000
    endloop
  endfacet
  facet normal  9.916498e-001  6.165506e-002 -1.132665e-001
    outer loop
      vertex  5.871509e+000 -8.616967e+000 -6.701803e+000
      vertex  5.502743e+000 -3.022477e+000 -6.885070e+000
      vertex  5.398834e+000 -1.127187e+000 -6.763120e+000
    endloop
  endfacet
  facet normal  9.878550e-001  6.117354e-002 -1.428297e-001
    outer loop
      vertex  5.871509e+000 -8.616967e+000 -6.701803e+000
      vertex  5.398834e+000 -1.127187e+000 -6.763120e+000
      vertex  5.487762e+000 -1.016797e+000 -6.100785e+000
    endloop
  endfacet
  facet normal  9.878768e-001  6.116311e-002 -1.426838e-001
    outer loop
      vertex  5.871509e+000 -8.616967e+000 -6.701803e+000
      vertex  5.487762e+000 -1.016797e+000 -6.100785e+000
      vertex  5.945014e+000 -8.525621e+000 -6.153726e+000
    endloop
  endfacet
  facet normal  1.015161e-001  5.749012e-003 -9.948173e-001
    outer loop
      vertex  1.179155e+001 -1.151626e-002 -6.909759e-002
      vertex  1.229888e+001 -2.879400e-003 -1.727640e-002
      vertex  1.258025e+001 -7.505320e+000 -3.192127e-002
    endloop
  endfacet
  facet normal  3.387092e-002  3.221130e-003 -9.994211e-001
    outer loop
      vertex  1.258025e+001 -7.505320e+000 -3.192127e-002
      vertex  1.229888e+001 -2.879400e-003 -1.727640e-002
      vertex  1.280838e+001  1.221245e-015  2.109424e-015
    endloop
  endfacet
  facet normal  4.603894e-002  2.849199e-003 -9.989356e-001
    outer loop
      vertex  1.258025e+001 -7.505320e+000 -3.192127e-002
      vertex  1.280838e+001  1.221245e-015  2.109424e-015
      vertex  1.327253e+001 -7.500000e+000  5.440093e-015
    endloop
  endfacet
endsolid CATIA STL
