solid CATIA STL
  facet normal  8.660254e-001  5.000000e-001  -0.000000e+000
    outer loop
      vertex  3.999038e+001 -7.500000e+000  5.000000e+000
      vertex  3.999038e+001 -7.500000e+000  0.000000e+000
      vertex  0.000000e+000  6.176537e+001  5.000000e+000
    endloop
  endfacet
  facet normal  8.660254e-001  5.000000e-001 -1.230696e-015
    outer loop
      vertex  0.000000e+000  6.176537e+001  5.000000e+000
      vertex  3.999038e+001 -7.500000e+000  0.000000e+000
      vertex -7.105427e-015  6.176537e+001  0.000000e+000
    endloop
  endfacet
  facet normal -8.660254e-001  5.000000e-001  1.230696e-015
    outer loop
      vertex  0.000000e+000  6.176537e+001  5.000000e+000
      vertex -7.105427e-015  6.176537e+001  0.000000e+000
      vertex -3.999038e+001 -7.500000e+000  5.000000e+000
    endloop
  endfacet
  facet normal -8.660254e-001  5.000000e-001  0.000000e+000
    outer loop
      vertex -3.999038e+001 -7.500000e+000  5.000000e+000
      vertex -7.105427e-015  6.176537e+001  0.000000e+000
      vertex -3.999038e+001 -7.500000e+000  0.000000e+000
    endloop
  endfacet
  facet normal -8.660254e-001 -5.000000e-001  0.000000e+000
    outer loop
      vertex  2.700000e+001  0.000000e+000  5.000000e+000
      vertex -7.105427e-015  4.676537e+001  5.000000e+000
      vertex  2.700000e+001  0.000000e+000  0.000000e+000
    endloop
  endfacet
  facet normal -8.660254e-001 -5.000000e-001  0.000000e+000
    outer loop
      vertex  2.700000e+001  0.000000e+000  0.000000e+000
      vertex -7.105427e-015  4.676537e+001  5.000000e+000
      vertex -7.105427e-015  4.676537e+001  0.000000e+000
    endloop
  endfacet
  facet normal  8.660254e-001 -5.000000e-001  0.000000e+000
    outer loop
      vertex -7.105427e-015  4.676537e+001  5.000000e+000
      vertex -2.700000e+001 -2.131628e-014  5.000000e+000
      vertex -7.105427e-015  4.676537e+001  0.000000e+000
    endloop
  endfacet
  facet normal  8.660254e-001 -5.000000e-001  0.000000e+000
    outer loop
      vertex -7.105427e-015  4.676537e+001  0.000000e+000
      vertex -2.700000e+001 -2.131628e-014  5.000000e+000
      vertex -2.700000e+001 -2.131628e-014  0.000000e+000
    endloop
  endfacet
  facet normal  0.000000e+000  -0.000000e+000 -1.000000e+000
    outer loop
      vertex -3.999038e+001 -7.500000e+000  0.000000e+000
      vertex  2.700000e+001  0.000000e+000  0.000000e+000
      vertex  3.999038e+001 -7.500000e+000  0.000000e+000
    endloop
  endfacet
  facet normal  0.000000e+000  0.000000e+000 -1.000000e+000
    outer loop
      vertex  2.700000e+001  0.000000e+000  0.000000e+000
      vertex -3.999038e+001 -7.500000e+000  0.000000e+000
      vertex -2.700000e+001 -2.131628e-014  0.000000e+000
    endloop
  endfacet
  facet normal  -0.000000e+000  0.000000e+000 -1.000000e+000
    outer loop
      vertex -2.700000e+001 -2.131628e-014  0.000000e+000
      vertex -3.999038e+001 -7.500000e+000  0.000000e+000
      vertex -7.105427e-015  6.176537e+001  0.000000e+000
    endloop
  endfacet
  facet normal  0.000000e+000  -0.000000e+000 -1.000000e+000
    outer loop
      vertex -2.700000e+001 -2.131628e-014  0.000000e+000
      vertex -7.105427e-015  6.176537e+001  0.000000e+000
      vertex -7.105427e-015  4.676537e+001  0.000000e+000
    endloop
  endfacet
  facet normal  0.000000e+000  0.000000e+000 -1.000000e+000
    outer loop
      vertex -7.105427e-015  4.676537e+001  0.000000e+000
      vertex -7.105427e-015  6.176537e+001  0.000000e+000
      vertex  3.999038e+001 -7.500000e+000  0.000000e+000
    endloop
  endfacet
  facet normal  0.000000e+000  0.000000e+000 -1.000000e+000
    outer loop
      vertex -7.105427e-015  4.676537e+001  0.000000e+000
      vertex  3.999038e+001 -7.500000e+000  0.000000e+000
      vertex  2.700000e+001  0.000000e+000  0.000000e+000
    endloop
  endfacet
  facet normal  0.000000e+000 -1.000000e+000  0.000000e+000
    outer loop
      vertex -3.999038e+001 -7.500000e+000  5.000000e+000
      vertex -3.999038e+001 -7.500000e+000  0.000000e+000
      vertex  3.999038e+001 -7.500000e+000  5.000000e+000
    endloop
  endfacet
  facet normal  0.000000e+000 -1.000000e+000  -0.000000e+000
    outer loop
      vertex  3.999038e+001 -7.500000e+000  5.000000e+000
      vertex -3.999038e+001 -7.500000e+000  0.000000e+000
      vertex  3.999038e+001 -7.500000e+000  0.000000e+000
    endloop
  endfacet
  facet normal -3.947460e-016  1.000000e+000  0.000000e+000
    outer loop
      vertex -2.700000e+001 -2.131628e-014  5.000000e+000
      vertex  2.700000e+001  0.000000e+000  5.000000e+000
      vertex -2.700000e+001 -2.131628e-014  0.000000e+000
    endloop
  endfacet
  facet normal -3.947460e-016  1.000000e+000  0.000000e+000
    outer loop
      vertex -2.700000e+001 -2.131628e-014  0.000000e+000
      vertex  2.700000e+001  0.000000e+000  5.000000e+000
      vertex  2.700000e+001  0.000000e+000  0.000000e+000
    endloop
  endfacet
  facet normal  0.000000e+000  0.000000e+000  1.000000e+000
    outer loop
      vertex  3.999038e+001 -7.500000e+000  5.000000e+000
      vertex  2.700000e+001  0.000000e+000  5.000000e+000
      vertex -3.999038e+001 -7.500000e+000  5.000000e+000
    endloop
  endfacet
  facet normal  0.000000e+000  0.000000e+000  1.000000e+000
    outer loop
      vertex -3.999038e+001 -7.500000e+000  5.000000e+000
      vertex  2.700000e+001  0.000000e+000  5.000000e+000
      vertex -2.700000e+001 -2.131628e-014  5.000000e+000
    endloop
  endfacet
  facet normal  0.000000e+000  -0.000000e+000  1.000000e+000
    outer loop
      vertex -3.999038e+001 -7.500000e+000  5.000000e+000
      vertex -2.700000e+001 -2.131628e-014  5.000000e+000
      vertex  0.000000e+000  6.176537e+001  5.000000e+000
    endloop
  endfacet
  facet normal  0.000000e+000  0.000000e+000  1.000000e+000
    outer loop
      vertex  0.000000e+000  6.176537e+001  5.000000e+000
      vertex -2.700000e+001 -2.131628e-014  5.000000e+000
      vertex -7.105427e-015  4.676537e+001  5.000000e+000
    endloop
  endfacet
  facet normal  -0.000000e+000  0.000000e+000  1.000000e+000
    outer loop
      vertex  0.000000e+000  6.176537e+001  5.000000e+000
      vertex -7.105427e-015  4.676537e+001  5.000000e+000
      vertex  3.999038e+001 -7.500000e+000  5.000000e+000
    endloop
  endfacet
  facet normal  0.000000e+000  0.000000e+000  1.000000e+000
    outer loop
      vertex  3.999038e+001 -7.500000e+000  5.000000e+000
      vertex -7.105427e-015  4.676537e+001  5.000000e+000
      vertex  2.700000e+001  0.000000e+000  5.000000e+000
    endloop
  endfacet
endsolid CATIA STL
