solid CATIA STL
  facet normal  0.000000e+000  1.000000e+000  0.000000e+000
    outer loop
      vertex  6.740810e+001  4.775200e+000  5.000000e-001
      vertex  6.985000e+001  4.775200e+000  5.000000e-001
      vertex  6.985000e+001  4.775200e+000  0.000000e+000
    endloop
  endfacet
  facet normal  -0.000000e+000  1.000000e+000  0.000000e+000
    outer loop
      vertex -6.985000e+001  4.775200e+000  0.000000e+000
      vertex -6.985000e+001  4.775200e+000  5.000000e-001
      vertex -6.024597e+001  4.775200e+000  5.000000e-001
    endloop
  endfacet
  facet normal  -0.000000e+000  1.000000e+000  0.000000e+000
    outer loop
      vertex -6.985000e+001  4.775200e+000  0.000000e+000
      vertex -6.024597e+001  4.775200e+000  5.000000e-001
      vertex -4.284732e+001  4.775200e+000  5.000000e-001
    endloop
  endfacet
  facet normal  -0.000000e+000  1.000000e+000  0.000000e+000
    outer loop
      vertex -6.985000e+001  4.775200e+000  0.000000e+000
      vertex -4.284732e+001  4.775200e+000  5.000000e-001
      vertex -2.833245e+001  4.775200e+000  5.000000e-001
    endloop
  endfacet
  facet normal  -0.000000e+000  1.000000e+000  0.000000e+000
    outer loop
      vertex -6.985000e+001  4.775200e+000  0.000000e+000
      vertex -2.833245e+001  4.775200e+000  5.000000e-001
      vertex -1.093380e+001  4.775200e+000  5.000000e-001
    endloop
  endfacet
  facet normal  -0.000000e+000  1.000000e+000  0.000000e+000
    outer loop
      vertex -6.985000e+001  4.775200e+000  0.000000e+000
      vertex -1.093380e+001  4.775200e+000  5.000000e-001
      vertex  3.581067e+000  4.775200e+000  5.000000e-001
    endloop
  endfacet
  facet normal  -0.000000e+000  1.000000e+000  0.000000e+000
    outer loop
      vertex -6.985000e+001  4.775200e+000  0.000000e+000
      vertex  3.581067e+000  4.775200e+000  5.000000e-001
      vertex  2.097972e+001  4.775200e+000  5.000000e-001
    endloop
  endfacet
  facet normal  -0.000000e+000  1.000000e+000  0.000000e+000
    outer loop
      vertex -6.985000e+001  4.775200e+000  0.000000e+000
      vertex  2.097972e+001  4.775200e+000  5.000000e-001
      vertex  3.549459e+001  4.775200e+000  5.000000e-001
    endloop
  endfacet
  facet normal  -0.000000e+000  1.000000e+000  0.000000e+000
    outer loop
      vertex -6.985000e+001  4.775200e+000  0.000000e+000
      vertex  3.549459e+001  4.775200e+000  5.000000e-001
      vertex  5.289324e+001  4.775200e+000  5.000000e-001
    endloop
  endfacet
  facet normal  -0.000000e+000  1.000000e+000  0.000000e+000
    outer loop
      vertex -6.985000e+001  4.775200e+000  0.000000e+000
      vertex  5.289324e+001  4.775200e+000  5.000000e-001
      vertex  6.740810e+001  4.775200e+000  5.000000e-001
    endloop
  endfacet
  facet normal  0.000000e+000  9.999999e-001  0.000000e+000
    outer loop
      vertex -6.985000e+001  4.775200e+000  0.000000e+000
      vertex  6.740810e+001  4.775200e+000  5.000000e-001
      vertex  6.985000e+001  4.775200e+000  0.000000e+000
    endloop
  endfacet
  facet normal  0.000000e+000 -1.000000e+000  0.000000e+000
    outer loop
      vertex -6.142406e+001 -4.775200e+000  5.000000e-001
      vertex -6.985000e+001 -4.775200e+000  5.000000e-001
      vertex -6.985000e+001 -4.775200e+000  0.000000e+000
    endloop
  endfacet
  facet normal  -0.000000e+000 -1.000000e+000  -0.000000e+000
    outer loop
      vertex  6.985000e+001 -4.775200e+000  0.000000e+000
      vertex  6.985000e+001 -4.775200e+000  5.000000e-001
      vertex  6.623003e+001 -4.775200e+000  5.000000e-001
    endloop
  endfacet
  facet normal  -0.000000e+000 -1.000000e+000  -0.000000e+000
    outer loop
      vertex  6.985000e+001 -4.775200e+000  0.000000e+000
      vertex  6.623003e+001 -4.775200e+000  5.000000e-001
      vertex  5.407132e+001 -4.775200e+000  5.000000e-001
    endloop
  endfacet
  facet normal  -0.000000e+000 -1.000000e+000  -0.000000e+000
    outer loop
      vertex  6.985000e+001 -4.775200e+000  0.000000e+000
      vertex  5.407132e+001 -4.775200e+000  5.000000e-001
      vertex  3.431650e+001 -4.775200e+000  5.000000e-001
    endloop
  endfacet
  facet normal  -0.000000e+000 -1.000000e+000  -0.000000e+000
    outer loop
      vertex  6.985000e+001 -4.775200e+000  0.000000e+000
      vertex  3.431650e+001 -4.775200e+000  5.000000e-001
      vertex  2.215780e+001 -4.775200e+000  5.000000e-001
    endloop
  endfacet
  facet normal  -0.000000e+000 -1.000000e+000  -0.000000e+000
    outer loop
      vertex  6.985000e+001 -4.775200e+000  0.000000e+000
      vertex  2.215780e+001 -4.775200e+000  5.000000e-001
      vertex  2.402983e+000 -4.775200e+000  5.000000e-001
    endloop
  endfacet
  facet normal  -0.000000e+000 -1.000000e+000  -0.000000e+000
    outer loop
      vertex  6.985000e+001 -4.775200e+000  0.000000e+000
      vertex  2.402983e+000 -4.775200e+000  5.000000e-001
      vertex -9.755716e+000 -4.775200e+000  5.000000e-001
    endloop
  endfacet
  facet normal  -0.000000e+000 -1.000000e+000  -0.000000e+000
    outer loop
      vertex  6.985000e+001 -4.775200e+000  0.000000e+000
      vertex -9.755716e+000 -4.775200e+000  5.000000e-001
      vertex -2.951054e+001 -4.775200e+000  5.000000e-001
    endloop
  endfacet
  facet normal  -0.000000e+000 -1.000000e+000  -0.000000e+000
    outer loop
      vertex  6.985000e+001 -4.775200e+000  0.000000e+000
      vertex -2.951054e+001 -4.775200e+000  5.000000e-001
      vertex -4.166924e+001 -4.775200e+000  5.000000e-001
    endloop
  endfacet
  facet normal  -0.000000e+000 -1.000000e+000  -0.000000e+000
    outer loop
      vertex  6.985000e+001 -4.775200e+000  0.000000e+000
      vertex -4.166924e+001 -4.775200e+000  5.000000e-001
      vertex -6.142406e+001 -4.775200e+000  5.000000e-001
    endloop
  endfacet
  facet normal  0.000000e+000 -1.000000e+000  -0.000000e+000
    outer loop
      vertex  6.985000e+001 -4.775200e+000  0.000000e+000
      vertex -6.142406e+001 -4.775200e+000  5.000000e-001
      vertex -6.985000e+001 -4.775200e+000  0.000000e+000
    endloop
  endfacet
  facet normal  -0.000000e+000  0.000000e+000  1.000000e+000
    outer loop
      vertex  3.549459e+001  4.775200e+000  5.000000e-001
      vertex  2.097972e+001  4.775200e+000  5.000000e-001
      vertex  3.287461e+001 -4.361744e+000  5.000000e-001
    endloop
  endfacet
  facet normal  0.000000e+000  0.000000e+000  1.000000e+000
    outer loop
      vertex  3.287461e+001 -4.361744e+000  5.000000e-001
      vertex  2.097972e+001  4.775200e+000  5.000000e-001
      vertex  2.359970e+001 -4.361744e+000  5.000000e-001
    endloop
  endfacet
  facet normal  -0.000000e+000  0.000000e+000  1.000000e+000
    outer loop
      vertex  3.287461e+001 -4.361744e+000  5.000000e-001
      vertex  2.359970e+001 -4.361744e+000  5.000000e-001
      vertex  3.431650e+001 -4.775200e+000  5.000000e-001
    endloop
  endfacet
  facet normal  0.000000e+000  0.000000e+000  1.000000e+000
    outer loop
      vertex  3.431650e+001 -4.775200e+000  5.000000e-001
      vertex  2.359970e+001 -4.361744e+000  5.000000e-001
      vertex  2.215780e+001 -4.775200e+000  5.000000e-001
    endloop
  endfacet
  facet normal  -0.000000e+000  0.000000e+000  1.000000e+000
    outer loop
      vertex -6.024597e+001  4.775200e+000  5.000000e-001
      vertex -6.985000e+001  4.775200e+000  5.000000e-001
      vertex -6.286595e+001 -4.361744e+000  5.000000e-001
    endloop
  endfacet
  facet normal  0.000000e+000  0.000000e+000  1.000000e+000
    outer loop
      vertex -6.286595e+001 -4.361744e+000  5.000000e-001
      vertex -6.985000e+001  4.775200e+000  5.000000e-001
      vertex -6.985000e+001 -4.775200e+000  5.000000e-001
    endloop
  endfacet
  facet normal  0.000000e+000  0.000000e+000  1.000000e+000
    outer loop
      vertex -6.286595e+001 -4.361744e+000  5.000000e-001
      vertex -6.985000e+001 -4.775200e+000  5.000000e-001
      vertex -6.142406e+001 -4.775200e+000  5.000000e-001
    endloop
  endfacet
  facet normal  -0.000000e+000  0.000000e+000  9.999999e-001
    outer loop
      vertex -4.284732e+001  4.775200e+000  5.000000e-001
      vertex -6.024597e+001  4.775200e+000  5.000000e-001
      vertex -4.428921e+001  4.361744e+000  5.000000e-001
    endloop
  endfacet
  facet normal  0.000000e+000  0.000000e+000  1.000000e+000
    outer loop
      vertex -4.428921e+001  4.361744e+000  5.000000e-001
      vertex -6.024597e+001  4.775200e+000  5.000000e-001
      vertex -5.880408e+001  4.361744e+000  5.000000e-001
    endloop
  endfacet
  facet normal  -0.000000e+000  0.000000e+000  1.000000e+000
    outer loop
      vertex -4.428921e+001  4.361744e+000  5.000000e-001
      vertex -5.880408e+001  4.361744e+000  5.000000e-001
      vertex -4.166924e+001 -4.775200e+000  5.000000e-001
    endloop
  endfacet
  facet normal  0.000000e+000  0.000000e+000  1.000000e+000
    outer loop
      vertex -4.166924e+001 -4.775200e+000  5.000000e-001
      vertex -5.880408e+001  4.361744e+000  5.000000e-001
      vertex -6.142406e+001 -4.775200e+000  5.000000e-001
    endloop
  endfacet
  facet normal  -0.000000e+000  0.000000e+000  1.000000e+000
    outer loop
      vertex -2.833245e+001  4.775200e+000  5.000000e-001
      vertex -4.284732e+001  4.775200e+000  5.000000e-001
      vertex -3.095243e+001 -4.361744e+000  5.000000e-001
    endloop
  endfacet
  facet normal  0.000000e+000  0.000000e+000  1.000000e+000
    outer loop
      vertex -3.095243e+001 -4.361744e+000  5.000000e-001
      vertex -4.284732e+001  4.775200e+000  5.000000e-001
      vertex -4.022734e+001 -4.361744e+000  5.000000e-001
    endloop
  endfacet
  facet normal  -0.000000e+000  0.000000e+000  9.999999e-001
    outer loop
      vertex -3.095243e+001 -4.361744e+000  5.000000e-001
      vertex -4.022734e+001 -4.361744e+000  5.000000e-001
      vertex -2.951054e+001 -4.775200e+000  5.000000e-001
    endloop
  endfacet
  facet normal  0.000000e+000  0.000000e+000  1.000000e+000
    outer loop
      vertex -2.951054e+001 -4.775200e+000  5.000000e-001
      vertex -4.022734e+001 -4.361744e+000  5.000000e-001
      vertex -4.166924e+001 -4.775200e+000  5.000000e-001
    endloop
  endfacet
  facet normal  -0.000000e+000  0.000000e+000  1.000000e+000
    outer loop
      vertex -1.093380e+001  4.775200e+000  5.000000e-001
      vertex -2.833245e+001  4.775200e+000  5.000000e-001
      vertex -1.237569e+001  4.361744e+000  5.000000e-001
    endloop
  endfacet
  facet normal  0.000000e+000  0.000000e+000  9.999999e-001
    outer loop
      vertex -1.237569e+001  4.361744e+000  5.000000e-001
      vertex -2.833245e+001  4.775200e+000  5.000000e-001
      vertex -2.689056e+001  4.361744e+000  5.000000e-001
    endloop
  endfacet
  facet normal  -0.000000e+000  0.000000e+000  1.000000e+000
    outer loop
      vertex -1.237569e+001  4.361744e+000  5.000000e-001
      vertex -2.689056e+001  4.361744e+000  5.000000e-001
      vertex -9.755716e+000 -4.775200e+000  5.000000e-001
    endloop
  endfacet
  facet normal  0.000000e+000  0.000000e+000  1.000000e+000
    outer loop
      vertex -9.755716e+000 -4.775200e+000  5.000000e-001
      vertex -2.689056e+001  4.361744e+000  5.000000e-001
      vertex -2.951054e+001 -4.775200e+000  5.000000e-001
    endloop
  endfacet
  facet normal  -0.000000e+000  0.000000e+000  1.000000e+000
    outer loop
      vertex  3.581067e+000  4.775200e+000  5.000000e-001
      vertex -1.093380e+001  4.775200e+000  5.000000e-001
      vertex  9.610909e-001 -4.361744e+000  5.000000e-001
    endloop
  endfacet
  facet normal  0.000000e+000  0.000000e+000  1.000000e+000
    outer loop
      vertex  9.610909e-001 -4.361744e+000  5.000000e-001
      vertex -1.093380e+001  4.775200e+000  5.000000e-001
      vertex -8.313824e+000 -4.361744e+000  5.000000e-001
    endloop
  endfacet
  facet normal  -0.000000e+000  0.000000e+000  1.000000e+000
    outer loop
      vertex  9.610909e-001 -4.361744e+000  5.000000e-001
      vertex -8.313824e+000 -4.361744e+000  5.000000e-001
      vertex  2.402983e+000 -4.775200e+000  5.000000e-001
    endloop
  endfacet
  facet normal  0.000000e+000  0.000000e+000  1.000000e+000
    outer loop
      vertex  2.402983e+000 -4.775200e+000  5.000000e-001
      vertex -8.313824e+000 -4.361744e+000  5.000000e-001
      vertex -9.755716e+000 -4.775200e+000  5.000000e-001
    endloop
  endfacet
  facet normal  -0.000000e+000  0.000000e+000  9.999999e-001
    outer loop
      vertex  2.097972e+001  4.775200e+000  5.000000e-001
      vertex  3.581067e+000  4.775200e+000  5.000000e-001
      vertex  1.953783e+001  4.361744e+000  5.000000e-001
    endloop
  endfacet
  facet normal  0.000000e+000  0.000000e+000  9.999999e-001
    outer loop
      vertex  1.953783e+001  4.361744e+000  5.000000e-001
      vertex  3.581067e+000  4.775200e+000  5.000000e-001
      vertex  5.022960e+000  4.361744e+000  5.000000e-001
    endloop
  endfacet
  facet normal  -0.000000e+000  0.000000e+000  1.000000e+000
    outer loop
      vertex  1.953783e+001  4.361744e+000  5.000000e-001
      vertex  5.022960e+000  4.361744e+000  5.000000e-001
      vertex  2.215780e+001 -4.775200e+000  5.000000e-001
    endloop
  endfacet
  facet normal  0.000000e+000  0.000000e+000  1.000000e+000
    outer loop
      vertex  2.215780e+001 -4.775200e+000  5.000000e-001
      vertex  5.022960e+000  4.361744e+000  5.000000e-001
      vertex  2.402983e+000 -4.775200e+000  5.000000e-001
    endloop
  endfacet
  facet normal  0.000000e+000  0.000000e+000  1.000000e+000
    outer loop
      vertex  6.623003e+001 -4.775200e+000  5.000000e-001
      vertex  6.985000e+001 -4.775200e+000  5.000000e-001
      vertex  6.885000e+001  4.361744e+000  5.000000e-001
    endloop
  endfacet
  facet normal  -0.000000e+000  0.000000e+000  1.000000e+000
    outer loop
      vertex  6.885000e+001  4.361744e+000  5.000000e-001
      vertex  6.985000e+001 -4.775200e+000  5.000000e-001
      vertex  6.985000e+001  4.775200e+000  5.000000e-001
    endloop
  endfacet
  facet normal  0.000000e+000  0.000000e+000  1.000000e+000
    outer loop
      vertex  6.885000e+001  4.361744e+000  5.000000e-001
      vertex  6.985000e+001  4.775200e+000  5.000000e-001
      vertex  6.740810e+001  4.775200e+000  5.000000e-001
    endloop
  endfacet
  facet normal  -0.000000e+000  0.000000e+000  9.999999e-001
    outer loop
      vertex  6.740810e+001  4.775200e+000  5.000000e-001
      vertex  5.289324e+001  4.775200e+000  5.000000e-001
      vertex  6.478813e+001 -4.361744e+000  5.000000e-001
    endloop
  endfacet
  facet normal  0.000000e+000  0.000000e+000  1.000000e+000
    outer loop
      vertex  6.478813e+001 -4.361744e+000  5.000000e-001
      vertex  5.289324e+001  4.775200e+000  5.000000e-001
      vertex  5.551322e+001 -4.361744e+000  5.000000e-001
    endloop
  endfacet
  facet normal  -0.000000e+000  0.000000e+000  1.000000e+000
    outer loop
      vertex  6.478813e+001 -4.361744e+000  5.000000e-001
      vertex  5.551322e+001 -4.361744e+000  5.000000e-001
      vertex  6.623003e+001 -4.775200e+000  5.000000e-001
    endloop
  endfacet
  facet normal  0.000000e+000  0.000000e+000  1.000000e+000
    outer loop
      vertex  6.623003e+001 -4.775200e+000  5.000000e-001
      vertex  5.551322e+001 -4.361744e+000  5.000000e-001
      vertex  5.407132e+001 -4.775200e+000  5.000000e-001
    endloop
  endfacet
  facet normal  -0.000000e+000  0.000000e+000  1.000000e+000
    outer loop
      vertex  5.289324e+001  4.775200e+000  5.000000e-001
      vertex  3.549459e+001  4.775200e+000  5.000000e-001
      vertex  5.145135e+001  4.361744e+000  5.000000e-001
    endloop
  endfacet
  facet normal  0.000000e+000  0.000000e+000  1.000000e+000
    outer loop
      vertex  5.145135e+001  4.361744e+000  5.000000e-001
      vertex  3.549459e+001  4.775200e+000  5.000000e-001
      vertex  3.693648e+001  4.361744e+000  5.000000e-001
    endloop
  endfacet
  facet normal  -0.000000e+000  0.000000e+000  1.000000e+000
    outer loop
      vertex  5.145135e+001  4.361744e+000  5.000000e-001
      vertex  3.693648e+001  4.361744e+000  5.000000e-001
      vertex  5.407132e+001 -4.775200e+000  5.000000e-001
    endloop
  endfacet
  facet normal  0.000000e+000  0.000000e+000  1.000000e+000
    outer loop
      vertex  5.407132e+001 -4.775200e+000  5.000000e-001
      vertex  3.693648e+001  4.361744e+000  5.000000e-001
      vertex  3.431650e+001 -4.775200e+000  5.000000e-001
    endloop
  endfacet
  facet normal -2.756376e-001 -9.612616e-001  -0.000000e+000
    outer loop
      vertex -6.142406e+001 -4.775200e+000  5.000000e-001
      vertex -6.142406e+001 -4.775200e+000  3.675000e+000
      vertex -6.286595e+001 -4.361744e+000  5.000000e-001
    endloop
  endfacet
  facet normal -2.756376e-001 -9.612616e-001  0.000000e+000
    outer loop
      vertex -6.286595e+001 -4.361744e+000  5.000000e-001
      vertex -6.142406e+001 -4.775200e+000  3.675000e+000
      vertex -6.286595e+001 -4.361744e+000  3.675000e+000
    endloop
  endfacet
  facet normal -9.612616e-001  2.756373e-001  0.000000e+000
    outer loop
      vertex -6.024597e+001  4.775200e+000  3.675000e+000
      vertex -6.024597e+001  4.775200e+000  5.000000e-001
      vertex -6.286595e+001 -4.361744e+000  3.675000e+000
    endloop
  endfacet
  facet normal -9.612616e-001  2.756373e-001  0.000000e+000
    outer loop
      vertex -6.286595e+001 -4.361744e+000  3.675000e+000
      vertex -6.024597e+001  4.775200e+000  5.000000e-001
      vertex -6.286595e+001 -4.361744e+000  5.000000e-001
    endloop
  endfacet
  facet normal  2.756376e-001  9.612616e-001  0.000000e+000
    outer loop
      vertex -6.024597e+001  4.775200e+000  5.000000e-001
      vertex -6.024597e+001  4.775200e+000  3.675000e+000
      vertex -5.880408e+001  4.361744e+000  5.000000e-001
    endloop
  endfacet
  facet normal  2.756376e-001  9.612616e-001  -0.000000e+000
    outer loop
      vertex -5.880408e+001  4.361744e+000  5.000000e-001
      vertex -6.024597e+001  4.775200e+000  3.675000e+000
      vertex -5.880408e+001  4.361744e+000  3.675000e+000
    endloop
  endfacet
  facet normal  9.612616e-001 -2.756373e-001  0.000000e+000
    outer loop
      vertex -6.142406e+001 -4.775200e+000  3.675000e+000
      vertex -6.142406e+001 -4.775200e+000  5.000000e-001
      vertex -5.880408e+001  4.361744e+000  3.675000e+000
    endloop
  endfacet
  facet normal  9.612616e-001 -2.756373e-001  0.000000e+000
    outer loop
      vertex -5.880408e+001  4.361744e+000  3.675000e+000
      vertex -6.142406e+001 -4.775200e+000  5.000000e-001
      vertex -5.880408e+001  4.361744e+000  5.000000e-001
    endloop
  endfacet
  facet normal -2.756373e-001 -9.612617e-001  -0.000000e+000
    outer loop
      vertex  2.402983e+000 -4.775200e+000  5.000000e-001
      vertex  2.402983e+000 -4.775200e+000  3.675000e+000
      vertex  9.610909e-001 -4.361744e+000  5.000000e-001
    endloop
  endfacet
  facet normal -2.756373e-001 -9.612617e-001  0.000000e+000
    outer loop
      vertex  9.610909e-001 -4.361744e+000  5.000000e-001
      vertex  2.402983e+000 -4.775200e+000  3.675000e+000
      vertex  9.610909e-001 -4.361744e+000  3.675000e+000
    endloop
  endfacet
  facet normal -9.612616e-001  2.756374e-001  0.000000e+000
    outer loop
      vertex  3.581067e+000  4.775200e+000  3.675000e+000
      vertex  3.581067e+000  4.775200e+000  5.000000e-001
      vertex  9.610909e-001 -4.361744e+000  3.675000e+000
    endloop
  endfacet
  facet normal -9.612616e-001  2.756374e-001  0.000000e+000
    outer loop
      vertex  9.610909e-001 -4.361744e+000  3.675000e+000
      vertex  3.581067e+000  4.775200e+000  5.000000e-001
      vertex  9.610909e-001 -4.361744e+000  5.000000e-001
    endloop
  endfacet
  facet normal  2.756374e-001  9.612617e-001  0.000000e+000
    outer loop
      vertex  3.581067e+000  4.775200e+000  5.000000e-001
      vertex  3.581067e+000  4.775200e+000  3.675000e+000
      vertex  5.022960e+000  4.361744e+000  5.000000e-001
    endloop
  endfacet
  facet normal  2.756374e-001  9.612617e-001  -0.000000e+000
    outer loop
      vertex  5.022960e+000  4.361744e+000  5.000000e-001
      vertex  3.581067e+000  4.775200e+000  3.675000e+000
      vertex  5.022960e+000  4.361744e+000  3.675000e+000
    endloop
  endfacet
  facet normal  9.612616e-001 -2.756373e-001  0.000000e+000
    outer loop
      vertex  2.402983e+000 -4.775200e+000  3.675000e+000
      vertex  2.402983e+000 -4.775200e+000  5.000000e-001
      vertex  5.022960e+000  4.361744e+000  3.675000e+000
    endloop
  endfacet
  facet normal  9.612616e-001 -2.756373e-001  0.000000e+000
    outer loop
      vertex  5.022960e+000  4.361744e+000  3.675000e+000
      vertex  2.402983e+000 -4.775200e+000  5.000000e-001
      vertex  5.022960e+000  4.361744e+000  5.000000e-001
    endloop
  endfacet
  facet normal -9.612616e-001 -2.756373e-001  0.000000e+000
    outer loop
      vertex -9.755716e+000 -4.775200e+000  3.675000e+000
      vertex -1.237569e+001  4.361744e+000  3.675000e+000
      vertex -9.755716e+000 -4.775200e+000  5.000000e-001
    endloop
  endfacet
  facet normal -9.612616e-001 -2.756373e-001  0.000000e+000
    outer loop
      vertex -9.755716e+000 -4.775200e+000  5.000000e-001
      vertex -1.237569e+001  4.361744e+000  3.675000e+000
      vertex -1.237569e+001  4.361744e+000  5.000000e-001
    endloop
  endfacet
  facet normal -2.756373e-001  9.612617e-001  0.000000e+000
    outer loop
      vertex -1.237569e+001  4.361744e+000  5.000000e-001
      vertex -1.237569e+001  4.361744e+000  3.675000e+000
      vertex -1.093380e+001  4.775200e+000  5.000000e-001
    endloop
  endfacet
  facet normal -2.756373e-001  9.612617e-001  0.000000e+000
    outer loop
      vertex -1.093380e+001  4.775200e+000  5.000000e-001
      vertex -1.237569e+001  4.361744e+000  3.675000e+000
      vertex -1.093380e+001  4.775200e+000  3.675000e+000
    endloop
  endfacet
  facet normal  9.612616e-001  2.756373e-001  0.000000e+000
    outer loop
      vertex -1.093380e+001  4.775200e+000  3.675000e+000
      vertex -8.313824e+000 -4.361744e+000  3.675000e+000
      vertex -1.093380e+001  4.775200e+000  5.000000e-001
    endloop
  endfacet
  facet normal  9.612616e-001  2.756373e-001  0.000000e+000
    outer loop
      vertex -1.093380e+001  4.775200e+000  5.000000e-001
      vertex -8.313824e+000 -4.361744e+000  3.675000e+000
      vertex -8.313824e+000 -4.361744e+000  5.000000e-001
    endloop
  endfacet
  facet normal  2.756373e-001 -9.612617e-001  0.000000e+000
    outer loop
      vertex -8.313824e+000 -4.361744e+000  5.000000e-001
      vertex -8.313824e+000 -4.361744e+000  3.675000e+000
      vertex -9.755716e+000 -4.775200e+000  5.000000e-001
    endloop
  endfacet
  facet normal  2.756373e-001 -9.612617e-001  0.000000e+000
    outer loop
      vertex -9.755716e+000 -4.775200e+000  5.000000e-001
      vertex -8.313824e+000 -4.361744e+000  3.675000e+000
      vertex -9.755716e+000 -4.775200e+000  3.675000e+000
    endloop
  endfacet
  facet normal -2.756376e-001 -9.612616e-001  -0.000000e+000
    outer loop
      vertex  3.431650e+001 -4.775200e+000  5.000000e-001
      vertex  3.431650e+001 -4.775200e+000  3.675000e+000
      vertex  3.287461e+001 -4.361744e+000  5.000000e-001
    endloop
  endfacet
  facet normal -2.756376e-001 -9.612616e-001  0.000000e+000
    outer loop
      vertex  3.287461e+001 -4.361744e+000  5.000000e-001
      vertex  3.431650e+001 -4.775200e+000  3.675000e+000
      vertex  3.287461e+001 -4.361744e+000  3.675000e+000
    endloop
  endfacet
  facet normal -9.612616e-001  2.756373e-001  0.000000e+000
    outer loop
      vertex  3.549459e+001  4.775200e+000  3.675000e+000
      vertex  3.549459e+001  4.775200e+000  5.000000e-001
      vertex  3.287461e+001 -4.361744e+000  3.675000e+000
    endloop
  endfacet
  facet normal -9.612616e-001  2.756373e-001  0.000000e+000
    outer loop
      vertex  3.287461e+001 -4.361744e+000  3.675000e+000
      vertex  3.549459e+001  4.775200e+000  5.000000e-001
      vertex  3.287461e+001 -4.361744e+000  5.000000e-001
    endloop
  endfacet
  facet normal  2.756369e-001  9.612617e-001  0.000000e+000
    outer loop
      vertex  3.549459e+001  4.775200e+000  5.000000e-001
      vertex  3.549459e+001  4.775200e+000  3.675000e+000
      vertex  3.693648e+001  4.361744e+000  5.000000e-001
    endloop
  endfacet
  facet normal  2.756369e-001  9.612617e-001  -0.000000e+000
    outer loop
      vertex  3.693648e+001  4.361744e+000  5.000000e-001
      vertex  3.549459e+001  4.775200e+000  3.675000e+000
      vertex  3.693648e+001  4.361744e+000  3.675000e+000
    endloop
  endfacet
  facet normal  9.612616e-001 -2.756377e-001  0.000000e+000
    outer loop
      vertex  3.431650e+001 -4.775200e+000  3.675000e+000
      vertex  3.431650e+001 -4.775200e+000  5.000000e-001
      vertex  3.693648e+001  4.361744e+000  3.675000e+000
    endloop
  endfacet
  facet normal  9.612616e-001 -2.756377e-001  0.000000e+000
    outer loop
      vertex  3.693648e+001  4.361744e+000  3.675000e+000
      vertex  3.431650e+001 -4.775200e+000  5.000000e-001
      vertex  3.693648e+001  4.361744e+000  5.000000e-001
    endloop
  endfacet
  facet normal -9.612616e-001 -2.756375e-001  0.000000e+000
    outer loop
      vertex  2.215780e+001 -4.775200e+000  3.675000e+000
      vertex  1.953783e+001  4.361744e+000  3.675000e+000
      vertex  2.215780e+001 -4.775200e+000  5.000000e-001
    endloop
  endfacet
  facet normal -9.612616e-001 -2.756375e-001  0.000000e+000
    outer loop
      vertex  2.215780e+001 -4.775200e+000  5.000000e-001
      vertex  1.953783e+001  4.361744e+000  3.675000e+000
      vertex  1.953783e+001  4.361744e+000  5.000000e-001
    endloop
  endfacet
  facet normal -2.756373e-001  9.612617e-001  0.000000e+000
    outer loop
      vertex  1.953783e+001  4.361744e+000  5.000000e-001
      vertex  1.953783e+001  4.361744e+000  3.675000e+000
      vertex  2.097972e+001  4.775200e+000  5.000000e-001
    endloop
  endfacet
  facet normal -2.756373e-001  9.612617e-001  0.000000e+000
    outer loop
      vertex  2.097972e+001  4.775200e+000  5.000000e-001
      vertex  1.953783e+001  4.361744e+000  3.675000e+000
      vertex  2.097972e+001  4.775200e+000  3.675000e+000
    endloop
  endfacet
  facet normal  9.612616e-001  2.756375e-001  0.000000e+000
    outer loop
      vertex  2.097972e+001  4.775200e+000  3.675000e+000
      vertex  2.359970e+001 -4.361744e+000  3.675000e+000
      vertex  2.097972e+001  4.775200e+000  5.000000e-001
    endloop
  endfacet
  facet normal  9.612616e-001  2.756375e-001  0.000000e+000
    outer loop
      vertex  2.097972e+001  4.775200e+000  5.000000e-001
      vertex  2.359970e+001 -4.361744e+000  3.675000e+000
      vertex  2.359970e+001 -4.361744e+000  5.000000e-001
    endloop
  endfacet
  facet normal  2.756373e-001 -9.612617e-001  0.000000e+000
    outer loop
      vertex  2.359970e+001 -4.361744e+000  5.000000e-001
      vertex  2.359970e+001 -4.361744e+000  3.675000e+000
      vertex  2.215780e+001 -4.775200e+000  5.000000e-001
    endloop
  endfacet
  facet normal  2.756373e-001 -9.612617e-001  0.000000e+000
    outer loop
      vertex  2.215780e+001 -4.775200e+000  5.000000e-001
      vertex  2.359970e+001 -4.361744e+000  3.675000e+000
      vertex  2.215780e+001 -4.775200e+000  3.675000e+000
    endloop
  endfacet
  facet normal -2.756373e-001 -9.612617e-001  -0.000000e+000
    outer loop
      vertex -2.951054e+001 -4.775200e+000  5.000000e-001
      vertex -2.951054e+001 -4.775200e+000  3.675000e+000
      vertex -3.095243e+001 -4.361744e+000  5.000000e-001
    endloop
  endfacet
  facet normal -2.756373e-001 -9.612617e-001  0.000000e+000
    outer loop
      vertex -3.095243e+001 -4.361744e+000  5.000000e-001
      vertex -2.951054e+001 -4.775200e+000  3.675000e+000
      vertex -3.095243e+001 -4.361744e+000  3.675000e+000
    endloop
  endfacet
  facet normal -9.612616e-001  2.756373e-001  0.000000e+000
    outer loop
      vertex -2.833245e+001  4.775200e+000  3.675000e+000
      vertex -2.833245e+001  4.775200e+000  5.000000e-001
      vertex -3.095243e+001 -4.361744e+000  3.675000e+000
    endloop
  endfacet
  facet normal -9.612616e-001  2.756373e-001  0.000000e+000
    outer loop
      vertex -3.095243e+001 -4.361744e+000  3.675000e+000
      vertex -2.833245e+001  4.775200e+000  5.000000e-001
      vertex -3.095243e+001 -4.361744e+000  5.000000e-001
    endloop
  endfacet
  facet normal  2.756373e-001  9.612617e-001  0.000000e+000
    outer loop
      vertex -2.833245e+001  4.775200e+000  5.000000e-001
      vertex -2.833245e+001  4.775200e+000  3.675000e+000
      vertex -2.689056e+001  4.361744e+000  5.000000e-001
    endloop
  endfacet
  facet normal  2.756373e-001  9.612617e-001  -0.000000e+000
    outer loop
      vertex -2.689056e+001  4.361744e+000  5.000000e-001
      vertex -2.833245e+001  4.775200e+000  3.675000e+000
      vertex -2.689056e+001  4.361744e+000  3.675000e+000
    endloop
  endfacet
  facet normal  9.612616e-001 -2.756373e-001  0.000000e+000
    outer loop
      vertex -2.951054e+001 -4.775200e+000  3.675000e+000
      vertex -2.951054e+001 -4.775200e+000  5.000000e-001
      vertex -2.689056e+001  4.361744e+000  3.675000e+000
    endloop
  endfacet
  facet normal  9.612616e-001 -2.756373e-001  0.000000e+000
    outer loop
      vertex -2.689056e+001  4.361744e+000  3.675000e+000
      vertex -2.951054e+001 -4.775200e+000  5.000000e-001
      vertex -2.689056e+001  4.361744e+000  5.000000e-001
    endloop
  endfacet
  facet normal -9.612616e-001 -2.756373e-001  0.000000e+000
    outer loop
      vertex -4.166924e+001 -4.775200e+000  3.675000e+000
      vertex -4.428921e+001  4.361744e+000  3.675000e+000
      vertex -4.166924e+001 -4.775200e+000  5.000000e-001
    endloop
  endfacet
  facet normal -9.612616e-001 -2.756373e-001  0.000000e+000
    outer loop
      vertex -4.166924e+001 -4.775200e+000  5.000000e-001
      vertex -4.428921e+001  4.361744e+000  3.675000e+000
      vertex -4.428921e+001  4.361744e+000  5.000000e-001
    endloop
  endfacet
  facet normal -2.756376e-001  9.612616e-001  0.000000e+000
    outer loop
      vertex -4.428921e+001  4.361744e+000  5.000000e-001
      vertex -4.428921e+001  4.361744e+000  3.675000e+000
      vertex -4.284732e+001  4.775200e+000  5.000000e-001
    endloop
  endfacet
  facet normal -2.756376e-001  9.612616e-001  0.000000e+000
    outer loop
      vertex -4.284732e+001  4.775200e+000  5.000000e-001
      vertex -4.428921e+001  4.361744e+000  3.675000e+000
      vertex -4.284732e+001  4.775200e+000  3.675000e+000
    endloop
  endfacet
  facet normal  9.612616e-001  2.756373e-001  0.000000e+000
    outer loop
      vertex -4.284732e+001  4.775200e+000  3.675000e+000
      vertex -4.022734e+001 -4.361744e+000  3.675000e+000
      vertex -4.284732e+001  4.775200e+000  5.000000e-001
    endloop
  endfacet
  facet normal  9.612616e-001  2.756373e-001  0.000000e+000
    outer loop
      vertex -4.284732e+001  4.775200e+000  5.000000e-001
      vertex -4.022734e+001 -4.361744e+000  3.675000e+000
      vertex -4.022734e+001 -4.361744e+000  5.000000e-001
    endloop
  endfacet
  facet normal  2.756376e-001 -9.612616e-001  0.000000e+000
    outer loop
      vertex -4.022734e+001 -4.361744e+000  5.000000e-001
      vertex -4.022734e+001 -4.361744e+000  3.675000e+000
      vertex -4.166924e+001 -4.775200e+000  5.000000e-001
    endloop
  endfacet
  facet normal  2.756376e-001 -9.612616e-001  0.000000e+000
    outer loop
      vertex -4.166924e+001 -4.775200e+000  5.000000e-001
      vertex -4.022734e+001 -4.361744e+000  3.675000e+000
      vertex -4.166924e+001 -4.775200e+000  3.675000e+000
    endloop
  endfacet
  facet normal  2.756369e-001  9.612617e-001  0.000000e+000
    outer loop
      vertex  6.740810e+001  4.775200e+000  5.000000e-001
      vertex  6.740810e+001  4.775200e+000  3.675000e+000
      vertex  6.885000e+001  4.361744e+000  5.000000e-001
    endloop
  endfacet
  facet normal  2.756369e-001  9.612617e-001  -0.000000e+000
    outer loop
      vertex  6.885000e+001  4.361744e+000  5.000000e-001
      vertex  6.740810e+001  4.775200e+000  3.675000e+000
      vertex  6.885000e+001  4.361744e+000  3.675000e+000
    endloop
  endfacet
  facet normal  9.612617e-001 -2.756369e-001  0.000000e+000
    outer loop
      vertex  6.623003e+001 -4.775200e+000  3.675000e+000
      vertex  6.623003e+001 -4.775200e+000  5.000000e-001
      vertex  6.885000e+001  4.361744e+000  3.675000e+000
    endloop
  endfacet
  facet normal  9.612617e-001 -2.756369e-001  0.000000e+000
    outer loop
      vertex  6.885000e+001  4.361744e+000  3.675000e+000
      vertex  6.623003e+001 -4.775200e+000  5.000000e-001
      vertex  6.885000e+001  4.361744e+000  5.000000e-001
    endloop
  endfacet
  facet normal -2.756369e-001 -9.612617e-001  -0.000000e+000
    outer loop
      vertex  6.623003e+001 -4.775200e+000  5.000000e-001
      vertex  6.623003e+001 -4.775200e+000  3.675000e+000
      vertex  6.478813e+001 -4.361744e+000  5.000000e-001
    endloop
  endfacet
  facet normal -2.756369e-001 -9.612617e-001  0.000000e+000
    outer loop
      vertex  6.478813e+001 -4.361744e+000  5.000000e-001
      vertex  6.623003e+001 -4.775200e+000  3.675000e+000
      vertex  6.478813e+001 -4.361744e+000  3.675000e+000
    endloop
  endfacet
  facet normal -9.612617e-001  2.756369e-001  0.000000e+000
    outer loop
      vertex  6.740810e+001  4.775200e+000  3.675000e+000
      vertex  6.740810e+001  4.775200e+000  5.000000e-001
      vertex  6.478813e+001 -4.361744e+000  3.675000e+000
    endloop
  endfacet
  facet normal -9.612617e-001  2.756369e-001  0.000000e+000
    outer loop
      vertex  6.478813e+001 -4.361744e+000  3.675000e+000
      vertex  6.740810e+001  4.775200e+000  5.000000e-001
      vertex  6.478813e+001 -4.361744e+000  5.000000e-001
    endloop
  endfacet
  facet normal  9.612616e-001  2.756373e-001  0.000000e+000
    outer loop
      vertex  5.289324e+001  4.775200e+000  3.675000e+000
      vertex  5.551322e+001 -4.361744e+000  3.675000e+000
      vertex  5.289324e+001  4.775200e+000  5.000000e-001
    endloop
  endfacet
  facet normal  9.612616e-001  2.756373e-001  0.000000e+000
    outer loop
      vertex  5.289324e+001  4.775200e+000  5.000000e-001
      vertex  5.551322e+001 -4.361744e+000  3.675000e+000
      vertex  5.551322e+001 -4.361744e+000  5.000000e-001
    endloop
  endfacet
  facet normal  2.756369e-001 -9.612617e-001  0.000000e+000
    outer loop
      vertex  5.551322e+001 -4.361744e+000  5.000000e-001
      vertex  5.551322e+001 -4.361744e+000  3.675000e+000
      vertex  5.407132e+001 -4.775200e+000  5.000000e-001
    endloop
  endfacet
  facet normal  2.756369e-001 -9.612617e-001  0.000000e+000
    outer loop
      vertex  5.407132e+001 -4.775200e+000  5.000000e-001
      vertex  5.551322e+001 -4.361744e+000  3.675000e+000
      vertex  5.407132e+001 -4.775200e+000  3.675000e+000
    endloop
  endfacet
  facet normal -9.612616e-001 -2.756373e-001  0.000000e+000
    outer loop
      vertex  5.407132e+001 -4.775200e+000  3.675000e+000
      vertex  5.145135e+001  4.361744e+000  3.675000e+000
      vertex  5.407132e+001 -4.775200e+000  5.000000e-001
    endloop
  endfacet
  facet normal -9.612616e-001 -2.756373e-001  0.000000e+000
    outer loop
      vertex  5.407132e+001 -4.775200e+000  5.000000e-001
      vertex  5.145135e+001  4.361744e+000  3.675000e+000
      vertex  5.145135e+001  4.361744e+000  5.000000e-001
    endloop
  endfacet
  facet normal -2.756369e-001  9.612617e-001  0.000000e+000
    outer loop
      vertex  5.145135e+001  4.361744e+000  5.000000e-001
      vertex  5.145135e+001  4.361744e+000  3.675000e+000
      vertex  5.289324e+001  4.775200e+000  5.000000e-001
    endloop
  endfacet
  facet normal -2.756369e-001  9.612617e-001  0.000000e+000
    outer loop
      vertex  5.289324e+001  4.775200e+000  5.000000e-001
      vertex  5.145135e+001  4.361744e+000  3.675000e+000
      vertex  5.289324e+001  4.775200e+000  3.675000e+000
    endloop
  endfacet
  facet normal  0.000000e+000  -0.000000e+000  1.000000e+000
    outer loop
      vertex -6.286595e+001 -4.361744e+000  3.675000e+000
      vertex -6.142406e+001 -4.775200e+000  3.675000e+000
      vertex -6.024597e+001  4.775200e+000  3.675000e+000
    endloop
  endfacet
  facet normal  0.000000e+000  0.000000e+000  1.000000e+000
    outer loop
      vertex -6.024597e+001  4.775200e+000  3.675000e+000
      vertex -6.142406e+001 -4.775200e+000  3.675000e+000
      vertex -5.880408e+001  4.361744e+000  3.675000e+000
    endloop
  endfacet
  facet normal  0.000000e+000  -0.000000e+000  1.000000e+000
    outer loop
      vertex  9.610909e-001 -4.361744e+000  3.675000e+000
      vertex  2.402983e+000 -4.775200e+000  3.675000e+000
      vertex  3.581067e+000  4.775200e+000  3.675000e+000
    endloop
  endfacet
  facet normal  0.000000e+000  0.000000e+000  1.000000e+000
    outer loop
      vertex  3.581067e+000  4.775200e+000  3.675000e+000
      vertex  2.402983e+000 -4.775200e+000  3.675000e+000
      vertex  5.022960e+000  4.361744e+000  3.675000e+000
    endloop
  endfacet
  facet normal  0.000000e+000  0.000000e+000  9.999999e-001
    outer loop
      vertex -1.237569e+001  4.361744e+000  3.675000e+000
      vertex -9.755716e+000 -4.775200e+000  3.675000e+000
      vertex -1.093380e+001  4.775200e+000  3.675000e+000
    endloop
  endfacet
  facet normal  0.000000e+000  0.000000e+000  9.999999e-001
    outer loop
      vertex -1.093380e+001  4.775200e+000  3.675000e+000
      vertex -9.755716e+000 -4.775200e+000  3.675000e+000
      vertex -8.313824e+000 -4.361744e+000  3.675000e+000
    endloop
  endfacet
  facet normal  0.000000e+000  -0.000000e+000  1.000000e+000
    outer loop
      vertex  3.287461e+001 -4.361744e+000  3.675000e+000
      vertex  3.431650e+001 -4.775200e+000  3.675000e+000
      vertex  3.549459e+001  4.775200e+000  3.675000e+000
    endloop
  endfacet
  facet normal  0.000000e+000  0.000000e+000  1.000000e+000
    outer loop
      vertex  3.549459e+001  4.775200e+000  3.675000e+000
      vertex  3.431650e+001 -4.775200e+000  3.675000e+000
      vertex  3.693648e+001  4.361744e+000  3.675000e+000
    endloop
  endfacet
  facet normal  0.000000e+000  0.000000e+000  1.000000e+000
    outer loop
      vertex  1.953783e+001  4.361744e+000  3.675000e+000
      vertex  2.215780e+001 -4.775200e+000  3.675000e+000
      vertex  2.097972e+001  4.775200e+000  3.675000e+000
    endloop
  endfacet
  facet normal  0.000000e+000  0.000000e+000  1.000000e+000
    outer loop
      vertex  2.097972e+001  4.775200e+000  3.675000e+000
      vertex  2.215780e+001 -4.775200e+000  3.675000e+000
      vertex  2.359970e+001 -4.361744e+000  3.675000e+000
    endloop
  endfacet
  facet normal  0.000000e+000  -0.000000e+000  9.999999e-001
    outer loop
      vertex -3.095243e+001 -4.361744e+000  3.675000e+000
      vertex -2.951054e+001 -4.775200e+000  3.675000e+000
      vertex -2.833245e+001  4.775200e+000  3.675000e+000
    endloop
  endfacet
  facet normal  0.000000e+000  0.000000e+000  9.999999e-001
    outer loop
      vertex -2.833245e+001  4.775200e+000  3.675000e+000
      vertex -2.951054e+001 -4.775200e+000  3.675000e+000
      vertex -2.689056e+001  4.361744e+000  3.675000e+000
    endloop
  endfacet
  facet normal  0.000000e+000  0.000000e+000  1.000000e+000
    outer loop
      vertex -4.428921e+001  4.361744e+000  3.675000e+000
      vertex -4.166924e+001 -4.775200e+000  3.675000e+000
      vertex -4.284732e+001  4.775200e+000  3.675000e+000
    endloop
  endfacet
  facet normal  0.000000e+000  0.000000e+000  1.000000e+000
    outer loop
      vertex -4.284732e+001  4.775200e+000  3.675000e+000
      vertex -4.166924e+001 -4.775200e+000  3.675000e+000
      vertex -4.022734e+001 -4.361744e+000  3.675000e+000
    endloop
  endfacet
  facet normal  0.000000e+000  -0.000000e+000  1.000000e+000
    outer loop
      vertex  6.478813e+001 -4.361744e+000  3.675000e+000
      vertex  6.623003e+001 -4.775200e+000  3.675000e+000
      vertex  6.740810e+001  4.775200e+000  3.675000e+000
    endloop
  endfacet
  facet normal  0.000000e+000  0.000000e+000  1.000000e+000
    outer loop
      vertex  6.740810e+001  4.775200e+000  3.675000e+000
      vertex  6.623003e+001 -4.775200e+000  3.675000e+000
      vertex  6.885000e+001  4.361744e+000  3.675000e+000
    endloop
  endfacet
  facet normal  0.000000e+000  0.000000e+000  9.999999e-001
    outer loop
      vertex  5.145135e+001  4.361744e+000  3.675000e+000
      vertex  5.407132e+001 -4.775200e+000  3.675000e+000
      vertex  5.289324e+001  4.775200e+000  3.675000e+000
    endloop
  endfacet
  facet normal  0.000000e+000  0.000000e+000  9.999999e-001
    outer loop
      vertex  5.289324e+001  4.775200e+000  3.675000e+000
      vertex  5.407132e+001 -4.775200e+000  3.675000e+000
      vertex  5.551322e+001 -4.361744e+000  3.675000e+000
    endloop
  endfacet
  facet normal  0.000000e+000  0.000000e+000 -1.000000e+000
    outer loop
      vertex -6.985000e+001 -4.775200e+000  0.000000e+000
      vertex -6.985000e+001  4.775200e+000  0.000000e+000
      vertex  6.985000e+001 -4.775200e+000  0.000000e+000
    endloop
  endfacet
  facet normal  0.000000e+000  0.000000e+000 -1.000000e+000
    outer loop
      vertex  6.985000e+001 -4.775200e+000  0.000000e+000
      vertex -6.985000e+001  4.775200e+000  0.000000e+000
      vertex  6.985000e+001  4.775200e+000  0.000000e+000
    endloop
  endfacet
  facet normal  1.000000e+000  -0.000000e+000  0.000000e+000
    outer loop
      vertex  6.985000e+001  4.775200e+000  5.000000e-001
      vertex  6.985000e+001 -4.775200e+000  5.000000e-001
      vertex  6.985000e+001  4.775200e+000  0.000000e+000
    endloop
  endfacet
  facet normal  1.000000e+000  0.000000e+000  0.000000e+000
    outer loop
      vertex  6.985000e+001  4.775200e+000  0.000000e+000
      vertex  6.985000e+001 -4.775200e+000  5.000000e-001
      vertex  6.985000e+001 -4.775200e+000  0.000000e+000
    endloop
  endfacet
  facet normal -1.000000e+000  -0.000000e+000  0.000000e+000
    outer loop
      vertex -6.985000e+001 -4.775200e+000  5.000000e-001
      vertex -6.985000e+001  4.775200e+000  5.000000e-001
      vertex -6.985000e+001 -4.775200e+000  0.000000e+000
    endloop
  endfacet
  facet normal -1.000000e+000  0.000000e+000  0.000000e+000
    outer loop
      vertex -6.985000e+001 -4.775200e+000  0.000000e+000
      vertex -6.985000e+001  4.775200e+000  5.000000e-001
      vertex -6.985000e+001  4.775200e+000  0.000000e+000
    endloop
  endfacet
endsolid CATIA STL
